<?xml version="1.0" encoding="utf-8"?>
<!-- Generator: Adobe Illustrator 27.4.1, SVG Export Plug-In . SVG Version: 6.00 Build 0)  -->
<svg version="1.2" baseProfile="tiny" id="g-1939-sanborn-desktop-interaction-img" xmlns="http://www.w3.org/2000/svg" xmlns:xlink="http://www.w3.org/1999/xlink"
	 x="0px" y="0px" viewBox="0 0 750 600" overflow="visible" xml:space="preserve">
<g>
	<g id="_x31_939-shape_00000127022564663617722270000000866715840478957456_">
		<g id="demolition-site_00000059291348093085420360000005819926669033961369_">
			<polygon fill="#DA4464" fill-opacity="0.5" stroke="#C2323F" stroke-miterlimit="10" points="230.997,333.864 238.073,327.451 
				238.073,333.864 			"/>
			
				<polygon id="centre-1_00000052788758824834136420000018289040419294409367_" fill="#DA4464" fill-opacity="0.5" stroke="#C2323F" stroke-miterlimit="10" points="
				159.122,415.248 140.325,433.603 140.325,424.426 159.122,405.517 			"/>
			
				<polygon id="henry-2_00000146457404306747473500000012227777246154800822_" fill="#DA4464" fill-opacity="0.5" stroke="#C2323F" stroke-miterlimit="10" points="
				270.583,294.057 270.583,310.864 283.631,296.932 290.707,296.489 291.813,285.653 280.313,285.653 			"/>
			
				<polygon id="garnet-2_00000092443807974010001980000016542982196711303554_" fill="#DA4464" fill-opacity="0.5" stroke="#C2323F" stroke-miterlimit="10" points="
				186.987,378.537 186.987,395.786 171.286,394.681 			"/>
			
				<polygon id="clinton-1_00000161591103876810350330000000659273495209292932_" fill="#DA4464" fill-opacity="0.5" stroke="#C2323F" stroke-miterlimit="10" points="
				235.641,342.268 219.497,357.97 219.497,347.354 224.804,341.162 			"/>
			
				<rect x="374.616" y="219.043" fill="#DA4464" fill-opacity="0.5" stroke="#C2323F" stroke-miterlimit="10" width="16.92" height="13.189"/>
			<polygon fill="#DA4464" fill-opacity="0.5" stroke="#C2323F" stroke-miterlimit="10" points="316.681,249.238 316.681,260.517 
				314.027,260.517 303.633,272.459 303.633,278.43 297.662,278.43 297.662,268.086 			"/>
			<polygon fill="#DA4464" fill-opacity="0.5" stroke="#C2323F" stroke-miterlimit="10" points="364.694,155.78 357.39,152.804 
				356.308,157.133 340.888,177.963 374.974,179.045 379.302,175.798 383.63,163.354 			"/>
			<polygon fill="#DA4464" fill-opacity="0.5" stroke="#C2323F" stroke-miterlimit="10" points="298.547,237.387 298.547,253.409 
				315.796,237.387 			"/>
			<polygon fill="#DA4464" fill-opacity="0.5" stroke="#C2323F" stroke-miterlimit="10" points="366.781,149.288 385.524,156.862 
				402.91,111.415 398.919,109.792 394.451,120.342 			"/>
			<polygon fill="#DA4464" fill-opacity="0.5" stroke="#C2323F" stroke-miterlimit="10" points="334.714,230.219 366.781,230.219 
				366.781,220.267 355.281,219.161 353.291,216.729 353.512,214.738 361.916,203.46 			"/>
			<polygon fill="#DA4464" fill-opacity="0.5" stroke="#C2323F" stroke-miterlimit="10" points="406.895,114.391 426.102,121.424 
				423.397,127.916 394.722,156.862 			"/>
			<polygon fill="#DA4464" fill-opacity="0.5" stroke="#C2323F" stroke-miterlimit="10" points="402.91,221.465 419.992,221.465 
				419.992,232.232 401.534,232.232 			"/>
			
				<polygon id="henry-1_00000150078248605121667110000011533901650122580905_" fill="#DA4464" fill-opacity="0.5" stroke="#C2323F" stroke-miterlimit="10" points="
				291.813,249.238 272.988,278.43 291.813,261.16 			"/>
			
				<rect x="427.672" y="223.617" fill="#DA4464" fill-opacity="0.5" stroke="#C2323F" stroke-miterlimit="10" width="19.521" height="8.615"/>
			
				<rect x="455.002" y="223.617" fill="#DA4464" fill-opacity="0.5" stroke="#C2323F" stroke-miterlimit="10" width="19.062" height="8.615"/>
			
				<rect x="481.413" y="222.469" fill="#DA4464" fill-opacity="0.5" stroke="#C2323F" stroke-miterlimit="10" width="19.521" height="9.763"/>
			
				<rect x="508.054" y="222.469" fill="#DA4464" fill-opacity="0.5" stroke="#C2323F" stroke-miterlimit="10" width="19.062" height="9.763"/>
			<polygon fill="#DA4464" fill-opacity="0.5" stroke="#C2323F" stroke-miterlimit="10" points="534.236,222.469 553.987,221.465 
				553.987,231.196 534.236,231.196 			"/>
			<polygon fill="#DA4464" fill-opacity="0.5" stroke="#C2323F" stroke-miterlimit="10" points="561.107,221.465 561.107,231.196 
				633.681,232.232 633.681,220.172 			"/>
			<polygon fill="#DA4464" fill-opacity="0.5" stroke="#C2323F" stroke-miterlimit="10" points="640.801,220.172 640.801,231.196 
				660.322,231.196 661.47,220.172 			"/>
			<polygon fill="#DA4464" fill-opacity="0.5" stroke="#C2323F" stroke-miterlimit="10" points="667.671,220.172 666.523,231.196 
				686.044,231.196 687.882,220.172 			"/>
			<polygon fill="#DA4464" fill-opacity="0.5" stroke="#C2323F" stroke-miterlimit="10" points="693.853,220.172 692.934,231.196 
				714.293,231.196 714.293,220.172 			"/>
			
				<rect x="720.724" y="221.321" fill="#DA4464" fill-opacity="0.5" stroke="#C2323F" stroke-miterlimit="10" width="20.44" height="8.727"/>
		</g>
		<g id="_x31_939-arrow_00000173145985671445482570000012440737655382318491_">
			
				
			<g>
				<path fill="none" stroke="#CE3467" stroke-width="2" stroke-miterlimit="10" d="M272.203,265.675
					c-7.091,2.521-19.621,5.138-32.078-1.382c-13.964-7.31-22.608-23.367-22.731-41.885"/>
				<g>
					<path fill="#CE3467" d="M277.747,263.287c-3.027,0.119-6.971-0.187-9.719-1.106l3.416,3.73l0.239,5.051
						C272.968,268.364,275.53,265.35,277.747,263.287z"/>
				</g>
			</g>
		</g>
		<g id="_x31_939-annotation-mobile_00000005961676126715690390000016121852462495195799_">
			<g id="demolition-site_00000041998667016885675340000006457064007520942243_">
				<polygon fill="#DA4464" fill-opacity="0.5" stroke="#C2323F" stroke-miterlimit="10" points="-806.719,408.255 
					-804.798,402.722 -802.911,406.172 				"/>
				<polygon fill="#DA4464" fill-opacity="0.5" stroke="#C2323F" stroke-miterlimit="10" points="-795.158,298.219 
					-796.425,307.864 -787.8,323.635 -777.116,288.868 				"/>
				<polygon fill="#DA4464" fill-opacity="0.5" stroke="#C2323F" stroke-miterlimit="10" points="-803.3,397.266 -799.982,403.334 
					-794.924,387.43 -798.633,380.649 				"/>
				<polygon fill="#DA4464" fill-opacity="0.5" stroke="#C2323F" stroke-miterlimit="10" points="-821.44,473.182 -826.152,488.588 
					-828.852,483.65 -824.303,467.948 				"/>
				<polygon fill="#DA4464" fill-opacity="0.5" stroke="#C2323F" stroke-miterlimit="10" points="-797.135,375.193 -792.19,384.235 
					-789.269,372.901 -785.593,370.581 -788.186,364.426 -794.372,367.809 				"/>
				<polygon fill="#DA4464" fill-opacity="0.5" stroke="#C2323F" stroke-miterlimit="10" points="-830.318,489.166 
					-826.609,495.947 -833.033,499.461 				"/>
				<polygon fill="#DA4464" fill-opacity="0.5" stroke="#C2323F" stroke-miterlimit="10" points="-828.917,502.465 -832.39,513.637 
					-839.638,516.21 -835.461,506.043 				"/>
				<polygon fill="#DA4464" fill-opacity="0.5" stroke="#C2323F" stroke-miterlimit="10" points="-817.25,445.235 -812.175,454.515 
					-820.947,458.539 				"/>
				<polygon fill="#DA4464" fill-opacity="0.5" stroke="#C2323F" stroke-miterlimit="10" points="-801.748,411.409 
					-805.813,424.606 -808.936,418.895 -807.902,414.002 				"/>
				<polygon fill="#DA4464" fill-opacity="0.5" stroke="#C2323F" stroke-miterlimit="10" points="-807.571,429.586 
					-812.337,445.175 -815.665,440.504 -810.434,424.351 				"/>
				
					<rect x="-761.935" y="301.245" transform="matrix(0.8774 -0.4798 0.4798 0.8774 -239.2969 -325.6731)" fill="#DA4464" fill-opacity="0.5" stroke="#C2323F" stroke-miterlimit="10" width="10.375" height="8.087"/>
				<polygon fill="#DA4464" fill-opacity="0.5" stroke="#C2323F" stroke-miterlimit="10" points="-785.522,337.519 
					-782.203,343.587 -783.631,344.368 -785.709,353.85 -783.952,357.062 -787.165,358.819 -790.208,353.254 				"/>
				<polygon fill="#DA4464" fill-opacity="0.5" stroke="#C2323F" stroke-miterlimit="10" points="-787.19,273.116 -791.994,273.664 
					-791.303,276.311 -793.47,292.054 -774.815,282.607 -773.441,279.587 -774.774,271.62 				"/>
				<polygon fill="#DA4464" fill-opacity="0.5" stroke="#C2323F" stroke-miterlimit="10" points="-798.764,336.479 -794.05,345.098 
					-789.484,331.404 				"/>
				<polygon fill="#DA4464" fill-opacity="0.5" stroke="#C2323F" stroke-miterlimit="10" points="-787.977,269.009 -775.665,267.57 
					-779.684,238.006 -782.309,238.307 -781.608,245.297 				"/>
				<polygon fill="#DA4464" fill-opacity="0.5" stroke="#C2323F" stroke-miterlimit="10" points="-781.416,321.982 
					-764.166,312.547 -767.094,307.194 -773.605,309.982 -775.392,309.259 -775.858,308.123 -774.656,299.583 				"/>
				<polygon fill="#DA4464" fill-opacity="0.5" stroke="#C2323F" stroke-miterlimit="10" points="-776.664,238.434 
					-764.263,236.567 -763.808,240.855 -770.718,264.864 				"/>
				<polygon fill="#DA4464" fill-opacity="0.5" stroke="#C2323F" stroke-miterlimit="10" points="-797.694,315.264 
					-799.488,331.865 -791.118,327.288 				"/>
				<polygon fill="#DA4464" fill-opacity="0.5" stroke="#C2323F" stroke-miterlimit="10" points="-747.305,297.209 
					-738.116,292.183 -734.948,297.975 -744.878,303.406 				"/>
				<polygon fill="#DA4464" fill-opacity="0.5" stroke="#C2323F" stroke-miterlimit="10" points="-798.9,344.836 -800.438,366.079 
					-795.392,351.249 				"/>
				
					<rect x="-732.818" y="287.885" transform="matrix(0.8774 -0.4798 0.4798 0.8774 -228.5446 -313.1295)" fill="#DA4464" fill-opacity="0.5" stroke="#C2323F" stroke-miterlimit="10" width="11.97" height="5.282"/>
				
					<rect x="-718.098" y="279.912" transform="matrix(0.8774 -0.4798 0.4798 0.8774 -222.9308 -307.1119)" fill="#DA4464" fill-opacity="0.5" stroke="#C2323F" stroke-miterlimit="10" width="11.688" height="5.282"/>
				
					<rect x="-704.076" y="271.413" transform="matrix(0.8774 -0.4798 0.4798 0.8774 -217.2845 -301.3152)" fill="#DA4464" fill-opacity="0.5" stroke="#C2323F" stroke-miterlimit="10" width="11.97" height="5.986"/>
				
					<rect x="-689.727" y="263.642" transform="matrix(0.8774 -0.4798 0.4798 0.8774 -211.8134 -295.4505)" fill="#DA4464" fill-opacity="0.5" stroke="#C2323F" stroke-miterlimit="10" width="11.688" height="5.986"/>
				<polygon fill="#DA4464" fill-opacity="0.5" stroke="#C2323F" stroke-miterlimit="10" points="-676.362,259.11 -666.032,252.759 
					-663.168,257.994 -673.794,263.805 				"/>
				<polygon fill="#DA4464" fill-opacity="0.5" stroke="#C2323F" stroke-miterlimit="10" points="-662.201,250.664 
					-659.338,255.899 -619.992,235.104 -623.54,228.617 				"/>
				<polygon fill="#DA4464" fill-opacity="0.5" stroke="#C2323F" stroke-miterlimit="10" points="-619.71,226.522 -616.466,232.452 
					-605.964,226.709 -608.59,220.44 				"/>
				<polygon fill="#DA4464" fill-opacity="0.5" stroke="#C2323F" stroke-miterlimit="10" points="-605.254,218.616 
					-602.629,224.884 -592.127,219.141 -594.382,212.67 				"/>
				<polygon fill="#DA4464" fill-opacity="0.5" stroke="#C2323F" stroke-miterlimit="10" points="-591.169,210.913 -588.42,217.114 
					-576.93,210.83 -580.173,204.899 				"/>
				
					<rect x="-575.861" y="200.29" transform="matrix(0.8774 -0.4798 0.4798 0.8774 -167.2458 -248.4195)" fill="#DA4464" fill-opacity="0.5" stroke="#C2323F" stroke-miterlimit="10" width="12.533" height="5.351"/>
			</g>
			<g id="_x31_939-arrow_00000168834042312612610480000017520132557497771428_">
				
					
				<g>
					<path fill="none" stroke="#CE3467" stroke-width="2" stroke-miterlimit="10" d="M-786.52,403.139
						c4.902,1.754,12.369,3.118,19.951-0.505c9.6-4.587,15.791-15.452,16.273-28.333"/>
					<g>
						<path fill="#CE3467" d="M-791.987,400.589c2.152,2.132,4.619,5.224,5.822,7.86l0.396-5.042l3.53-3.621
							C-785.014,400.619-788.966,400.802-791.987,400.589z"/>
					</g>
				</g>
			</g>
		</g>
		<g id="_x31_939-text_00000033370990368572906770000006095480158634998656_">
			<g>
				
					
				<g>
					<g>
						<path fill="none" stroke="#C2B585" d="M167.074,187.421h2.815c3.235,0,5.146,1.744,5.146,5.237
							c0,3.493-1.911,5.321-5.05,5.321h-2.912V187.421z M169.767,196.461c2.125,0,3.345-1.208,3.345-3.803
							c0-2.596-1.22-3.72-3.345-3.72h-0.82v7.523H169.767z"/>
						<path fill="none" stroke="#C2B585" d="M177.453,187.421h6.354v1.576h-4.481v2.706h3.797v1.576h-3.797v3.125h4.643v1.576
							h-6.516V187.421z"/>
						<path fill="none" stroke="#C2B585" d="M186.428,187.421h2.118l1.866,5.16c0.232,0.671,0.445,1.382,0.678,2.073h0.065
							c0.232-0.691,0.433-1.401,0.665-2.073l1.827-5.16h2.118v10.558h-1.718v-4.83c0-0.975,0.148-2.38,0.239-3.358h-0.065
							l-0.852,2.454l-1.737,4.743h-1.111l-1.743-4.743l-0.84-2.454h-0.064c0.09,0.978,0.239,2.383,0.239,3.358v4.83h-1.686V187.421z
							"/>
						<path fill="none" stroke="#C2B585" d="M198.189,192.658c0-3.416,1.905-5.431,4.656-5.431s4.656,2.024,4.656,5.431
							c0,3.416-1.905,5.515-4.656,5.515S198.189,196.074,198.189,192.658z M205.577,192.658c0-2.37-1.072-3.804-2.731-3.804
							s-2.731,1.434-2.731,3.804c0,2.37,1.072,3.887,2.731,3.887S205.577,195.028,205.577,192.658z"/>
						<path fill="none" stroke="#C2B585" d="M209.915,187.421h1.873v8.982h4.385v1.576h-6.257V187.421z"/>
						<path fill="none" stroke="#C2B585" d="M218.309,187.421h1.873v10.558h-1.873V187.421z"/>
						<path fill="none" stroke="#C2B585" d="M222.429,196.626l1.091-1.285c0.755,0.72,1.769,1.204,2.75,1.204
							c1.188,0,1.841-0.539,1.841-1.362c0-0.869-0.682-1.146-1.641-1.553l-1.443-0.626c-1.04-0.433-2.134-1.256-2.134-2.799
							c0-1.682,1.485-2.977,3.545-2.977c1.233,0,2.428,0.51,3.255,1.347l-0.962,1.188c-0.671-0.571-1.388-0.907-2.292-0.907
							c-1.001,0-1.653,0.468-1.653,1.24c0,0.83,0.804,1.137,1.679,1.495l1.424,0.597c1.256,0.523,2.134,1.317,2.134,2.848
							c0,1.711-1.42,3.139-3.791,3.139C224.805,198.173,223.429,197.611,222.429,196.626z"/>
						<path fill="none" stroke="#C2B585" d="M232.24,187.421h1.873v4.243h4.269v-4.243h1.873v10.558h-1.873v-4.682h-4.269v4.682
							h-1.873V187.421z"/>
						<path fill="none" stroke="#C2B585" d="M243.233,187.421h6.354v1.576h-4.481v2.706h3.797v1.576h-3.797v3.125h4.643v1.576
							h-6.516V187.421z"/>
						<path fill="none" stroke="#C2B585" d="M252.208,187.421h2.815c3.235,0,5.146,1.744,5.146,5.237
							c0,3.493-1.911,5.321-5.05,5.321h-2.912V187.421z M254.901,196.461c2.125,0,3.345-1.208,3.345-3.803
							c0-2.596-1.22-3.72-3.345-3.72h-0.82v7.523H254.901z"/>
						<path fill="none" stroke="#C2B585" d="M196.67,204.144h1.873v8.982h4.385v1.576h-6.257V204.144z"/>
						<path fill="none" stroke="#C2B585" d="M204.008,209.381c0-3.416,1.905-5.431,4.656-5.431s4.656,2.024,4.656,5.431
							c0,3.416-1.905,5.515-4.656,5.515S204.008,212.797,204.008,209.381z M211.396,209.381c0-2.37-1.072-3.804-2.731-3.804
							s-2.731,1.434-2.731,3.804c0,2.37,1.072,3.887,2.731,3.887S211.396,211.751,211.396,209.381z"/>
						<path fill="none" stroke="#C2B585" d="M217.446,205.72h-3.048v-1.576h7.968v1.576h-3.048v8.982h-1.873V205.72z"/>
						<path fill="none" stroke="#C2B585" d="M223.18,213.349l1.091-1.285c0.755,0.72,1.769,1.204,2.75,1.204
							c1.188,0,1.841-0.539,1.841-1.362c0-0.869-0.682-1.146-1.641-1.553l-1.443-0.626c-1.04-0.433-2.134-1.256-2.134-2.799
							c0-1.682,1.485-2.977,3.545-2.977c1.233,0,2.428,0.51,3.255,1.347l-0.962,1.188c-0.671-0.571-1.388-0.907-2.292-0.907
							c-1.001,0-1.653,0.468-1.653,1.24c0,0.83,0.804,1.137,1.679,1.495l1.424,0.597c1.256,0.523,2.134,1.317,2.134,2.848
							c0,1.711-1.42,3.139-3.791,3.139C225.556,214.896,224.18,214.334,223.18,213.349z"/>
					</g>
					<g>
						<path fill="#CE3467" d="M167.074,187.421h2.815c3.235,0,5.146,1.744,5.146,5.237c0,3.493-1.911,5.321-5.05,5.321h-2.912
							V187.421z M169.767,196.461c2.125,0,3.345-1.208,3.345-3.803c0-2.596-1.22-3.72-3.345-3.72h-0.82v7.523H169.767z"/>
						<path fill="#CE3467" d="M177.453,187.421h6.354v1.576h-4.481v2.706h3.797v1.576h-3.797v3.125h4.643v1.576h-6.516V187.421z"/>
						<path fill="#CE3467" d="M186.428,187.421h2.118l1.866,5.16c0.232,0.671,0.445,1.382,0.678,2.073h0.065
							c0.232-0.691,0.433-1.401,0.665-2.073l1.827-5.16h2.118v10.558h-1.718v-4.83c0-0.975,0.148-2.38,0.239-3.358h-0.065
							l-0.852,2.454l-1.737,4.743h-1.111l-1.743-4.743l-0.84-2.454h-0.064c0.09,0.978,0.239,2.383,0.239,3.358v4.83h-1.686V187.421z
							"/>
						<path fill="#CE3467" d="M198.189,192.658c0-3.416,1.905-5.431,4.656-5.431s4.656,2.024,4.656,5.431
							c0,3.416-1.905,5.515-4.656,5.515S198.189,196.074,198.189,192.658z M205.577,192.658c0-2.37-1.072-3.804-2.731-3.804
							s-2.731,1.434-2.731,3.804c0,2.37,1.072,3.887,2.731,3.887S205.577,195.028,205.577,192.658z"/>
						<path fill="#CE3467" d="M209.915,187.421h1.873v8.982h4.385v1.576h-6.257V187.421z"/>
						<path fill="#CE3467" d="M218.309,187.421h1.873v10.558h-1.873V187.421z"/>
						<path fill="#CE3467" d="M222.429,196.626l1.091-1.285c0.755,0.72,1.769,1.204,2.75,1.204c1.188,0,1.841-0.539,1.841-1.362
							c0-0.869-0.682-1.146-1.641-1.553l-1.443-0.626c-1.04-0.433-2.134-1.256-2.134-2.799c0-1.682,1.485-2.977,3.545-2.977
							c1.233,0,2.428,0.51,3.255,1.347l-0.962,1.188c-0.671-0.571-1.388-0.907-2.292-0.907c-1.001,0-1.653,0.468-1.653,1.24
							c0,0.83,0.804,1.137,1.679,1.495l1.424,0.597c1.256,0.523,2.134,1.317,2.134,2.848c0,1.711-1.42,3.139-3.791,3.139
							C224.805,198.173,223.429,197.611,222.429,196.626z"/>
						<path fill="#CE3467" d="M232.24,187.421h1.873v4.243h4.269v-4.243h1.873v10.558h-1.873v-4.682h-4.269v4.682h-1.873V187.421z"
							/>
						<path fill="#CE3467" d="M243.233,187.421h6.354v1.576h-4.481v2.706h3.797v1.576h-3.797v3.125h4.643v1.576h-6.516V187.421z"/>
						<path fill="#CE3467" d="M252.208,187.421h2.815c3.235,0,5.146,1.744,5.146,5.237c0,3.493-1.911,5.321-5.05,5.321h-2.912
							V187.421z M254.901,196.461c2.125,0,3.345-1.208,3.345-3.803c0-2.596-1.22-3.72-3.345-3.72h-0.82v7.523H254.901z"/>
						<path fill="#CE3467" d="M196.67,204.144h1.873v8.982h4.385v1.576h-6.257V204.144z"/>
						<path fill="#CE3467" d="M204.008,209.381c0-3.416,1.905-5.431,4.656-5.431s4.656,2.024,4.656,5.431
							c0,3.416-1.905,5.515-4.656,5.515S204.008,212.797,204.008,209.381z M211.396,209.381c0-2.37-1.072-3.804-2.731-3.804
							s-2.731,1.434-2.731,3.804c0,2.37,1.072,3.887,2.731,3.887S211.396,211.751,211.396,209.381z"/>
						<path fill="#CE3467" d="M217.446,205.72h-3.048v-1.576h7.968v1.576h-3.048v8.982h-1.873V205.72z"/>
						<path fill="#CE3467" d="M223.18,213.349l1.091-1.285c0.755,0.72,1.769,1.204,2.75,1.204c1.188,0,1.841-0.539,1.841-1.362
							c0-0.869-0.682-1.146-1.641-1.553l-1.443-0.626c-1.04-0.433-2.134-1.256-2.134-2.799c0-1.682,1.485-2.977,3.545-2.977
							c1.233,0,2.428,0.51,3.255,1.347l-0.962,1.188c-0.671-0.571-1.388-0.907-2.292-0.907c-1.001,0-1.653,0.468-1.653,1.24
							c0,0.83,0.804,1.137,1.679,1.495l1.424,0.597c1.256,0.523,2.134,1.317,2.134,2.848c0,1.711-1.42,3.139-3.791,3.139
							C225.556,214.896,224.18,214.334,223.18,213.349z"/>
					</g>
				</g>
			</g>
			<g>
				
					
				<g>
					<g>
						<path fill="none" stroke="#C2B585" d="M-774.995,354.114h1.918c2.205,0,3.507,1.188,3.507,3.569
							c0,2.38-1.303,3.626-3.441,3.626h-1.984V354.114z M-773.16,360.275c1.448,0,2.279-0.823,2.279-2.592
							c0-1.77-0.832-2.535-2.279-2.535h-0.559v5.127H-773.16z"/>
						<path fill="none" stroke="#C2B585" d="M-767.921,354.114h4.33v1.074h-3.054v1.844h2.588v1.073h-2.588v2.13h3.164v1.074h-4.44
							V354.114z"/>
						<path fill="none" stroke="#C2B585" d="M-761.806,354.114h1.443l1.271,3.517c0.159,0.457,0.304,0.941,0.462,1.412h0.044
							c0.158-0.471,0.295-0.955,0.453-1.412l1.246-3.517h1.443v7.195h-1.171v-3.292c0-0.664,0.102-1.621,0.163-2.288h-0.044
							l-0.581,1.672l-1.184,3.232h-0.757l-1.188-3.232l-0.572-1.672h-0.044c0.062,0.667,0.163,1.624,0.163,2.288v3.292h-1.148
							V354.114z"/>
						<path fill="none" stroke="#C2B585" d="M-753.791,357.684c0-2.328,1.298-3.701,3.173-3.701c1.875,0,3.173,1.38,3.173,3.701
							c0,2.327-1.298,3.758-3.173,3.758C-752.493,361.441-753.791,360.011-753.791,357.684z M-748.757,357.684
							c0-1.615-0.73-2.593-1.861-2.593c-1.131,0-1.862,0.978-1.862,2.593c0,1.614,0.73,2.648,1.862,2.648
							C-749.487,360.332-748.757,359.298-748.757,357.684z"/>
						<path fill="none" stroke="#C2B585" d="M-745.801,354.114h1.276v6.121h2.988v1.074h-4.264V354.114z"/>
						<path fill="none" stroke="#C2B585" d="M-740.081,354.114h1.276v7.195h-1.276V354.114z"/>
						<path fill="none" stroke="#C2B585" d="M-737.274,360.388l0.744-0.876c0.515,0.49,1.206,0.82,1.875,0.82
							c0.81,0,1.254-0.367,1.254-0.928c0-0.593-0.464-0.781-1.118-1.059l-0.983-0.427c-0.708-0.295-1.455-0.856-1.455-1.908
							c0-1.146,1.012-2.028,2.416-2.028c0.84,0,1.655,0.348,2.218,0.917l-0.656,0.811c-0.458-0.39-0.946-0.619-1.562-0.619
							c-0.682,0-1.126,0.319-1.126,0.846c0,0.565,0.548,0.774,1.144,1.019l0.97,0.407c0.856,0.356,1.455,0.897,1.455,1.94
							c0,1.166-0.968,2.139-2.583,2.139C-735.654,361.441-736.592,361.059-737.274,360.388z"/>
						<path fill="none" stroke="#C2B585" d="M-730.587,354.114h1.276v2.892h2.909v-2.892h1.276v7.195h-1.276v-3.19h-2.909v3.19
							h-1.276V354.114z"/>
						<path fill="none" stroke="#C2B585" d="M-723.097,354.114h4.33v1.074h-3.054v1.844h2.588v1.073h-2.588v2.13h3.164v1.074h-4.44
							V354.114z"/>
						<path fill="none" stroke="#C2B585" d="M-716.98,354.114h1.918c2.205,0,3.507,1.188,3.507,3.569
							c0,2.38-1.303,3.626-3.441,3.626h-1.984V354.114z M-715.146,360.275c1.448,0,2.279-0.823,2.279-2.592
							c0-1.77-0.832-2.535-2.279-2.535h-0.559v5.127H-715.146z"/>
						<path fill="none" stroke="#C2B585" d="M-754.827,364.368h1.276v6.121h2.988v1.074h-4.264V364.368z"/>
						<path fill="none" stroke="#C2B585" d="M-749.826,367.938c0-2.328,1.298-3.701,3.173-3.701c1.875,0,3.173,1.38,3.173,3.701
							c0,2.327-1.298,3.758-3.173,3.758C-748.528,371.695-749.826,370.265-749.826,367.938z M-744.792,367.938
							c0-1.615-0.73-2.593-1.861-2.593c-1.131,0-1.862,0.978-1.862,2.593c0,1.614,0.73,2.648,1.862,2.648
							C-745.522,370.586-744.792,369.552-744.792,367.938z"/>
						<path fill="none" stroke="#C2B585" d="M-740.669,365.442h-2.077v-1.074h5.43v1.074h-2.077v6.121h-1.276V365.442z"/>
						<path fill="none" stroke="#C2B585" d="M-736.762,370.642l0.744-0.876c0.515,0.49,1.206,0.82,1.875,0.82
							c0.81,0,1.254-0.367,1.254-0.928c0-0.593-0.464-0.781-1.118-1.059l-0.983-0.427c-0.708-0.295-1.455-0.856-1.455-1.908
							c0-1.146,1.012-2.028,2.416-2.028c0.84,0,1.655,0.348,2.218,0.917l-0.656,0.811c-0.458-0.39-0.946-0.619-1.562-0.619
							c-0.682,0-1.126,0.319-1.126,0.846c0,0.565,0.548,0.774,1.144,1.019l0.97,0.407c0.856,0.356,1.455,0.897,1.455,1.94
							c0,1.166-0.968,2.139-2.583,2.139C-735.143,371.695-736.08,371.312-736.762,370.642z"/>
					</g>
					<g>
						<path fill="#CE3467" d="M-774.995,354.114h1.918c2.205,0,3.507,1.188,3.507,3.569c0,2.38-1.303,3.626-3.441,3.626h-1.984
							V354.114z M-773.16,360.275c1.448,0,2.279-0.823,2.279-2.592c0-1.77-0.832-2.535-2.279-2.535h-0.559v5.127H-773.16z"/>
						<path fill="#CE3467" d="M-767.921,354.114h4.33v1.074h-3.054v1.844h2.588v1.073h-2.588v2.13h3.164v1.074h-4.44V354.114z"/>
						<path fill="#CE3467" d="M-761.806,354.114h1.443l1.271,3.517c0.159,0.457,0.304,0.941,0.462,1.412h0.044
							c0.158-0.471,0.295-0.955,0.453-1.412l1.246-3.517h1.443v7.195h-1.171v-3.292c0-0.664,0.102-1.621,0.163-2.288h-0.044
							l-0.581,1.672l-1.184,3.232h-0.757l-1.188-3.232l-0.572-1.672h-0.044c0.062,0.667,0.163,1.624,0.163,2.288v3.292h-1.148
							V354.114z"/>
						<path fill="#CE3467" d="M-753.791,357.684c0-2.328,1.298-3.701,3.173-3.701c1.875,0,3.173,1.38,3.173,3.701
							c0,2.327-1.298,3.758-3.173,3.758C-752.493,361.441-753.791,360.011-753.791,357.684z M-748.757,357.684
							c0-1.615-0.73-2.593-1.861-2.593c-1.131,0-1.862,0.978-1.862,2.593c0,1.614,0.73,2.648,1.862,2.648
							C-749.487,360.332-748.757,359.298-748.757,357.684z"/>
						<path fill="#CE3467" d="M-745.801,354.114h1.276v6.121h2.988v1.074h-4.264V354.114z"/>
						<path fill="#CE3467" d="M-740.081,354.114h1.276v7.195h-1.276V354.114z"/>
						<path fill="#CE3467" d="M-737.274,360.388l0.744-0.876c0.515,0.49,1.206,0.82,1.875,0.82c0.81,0,1.254-0.367,1.254-0.928
							c0-0.593-0.464-0.781-1.118-1.059l-0.983-0.427c-0.708-0.295-1.455-0.856-1.455-1.908c0-1.146,1.012-2.028,2.416-2.028
							c0.84,0,1.655,0.348,2.218,0.917l-0.656,0.811c-0.458-0.39-0.946-0.619-1.562-0.619c-0.682,0-1.126,0.319-1.126,0.846
							c0,0.565,0.548,0.774,1.144,1.019l0.97,0.407c0.856,0.356,1.455,0.897,1.455,1.94c0,1.166-0.968,2.139-2.583,2.139
							C-735.654,361.441-736.592,361.059-737.274,360.388z"/>
						<path fill="#CE3467" d="M-730.587,354.114h1.276v2.892h2.909v-2.892h1.276v7.195h-1.276v-3.19h-2.909v3.19h-1.276V354.114z"/>
						<path fill="#CE3467" d="M-723.097,354.114h4.33v1.074h-3.054v1.844h2.588v1.073h-2.588v2.13h3.164v1.074h-4.44V354.114z"/>
						<path fill="#CE3467" d="M-716.98,354.114h1.918c2.205,0,3.507,1.188,3.507,3.569c0,2.38-1.303,3.626-3.441,3.626h-1.984
							V354.114z M-715.146,360.275c1.448,0,2.279-0.823,2.279-2.592c0-1.77-0.832-2.535-2.279-2.535h-0.559v5.127H-715.146z"/>
						<path fill="#CE3467" d="M-754.827,364.368h1.276v6.121h2.988v1.074h-4.264V364.368z"/>
						<path fill="#CE3467" d="M-749.826,367.938c0-2.328,1.298-3.701,3.173-3.701c1.875,0,3.173,1.38,3.173,3.701
							c0,2.327-1.298,3.758-3.173,3.758C-748.528,371.695-749.826,370.265-749.826,367.938z M-744.792,367.938
							c0-1.615-0.73-2.593-1.861-2.593c-1.131,0-1.862,0.978-1.862,2.593c0,1.614,0.73,2.648,1.862,2.648
							C-745.522,370.586-744.792,369.552-744.792,367.938z"/>
						<path fill="#CE3467" d="M-740.669,365.442h-2.077v-1.074h5.43v1.074h-2.077v6.121h-1.276V365.442z"/>
						<path fill="#CE3467" d="M-736.762,370.642l0.744-0.876c0.515,0.49,1.206,0.82,1.875,0.82c0.81,0,1.254-0.367,1.254-0.928
							c0-0.593-0.464-0.781-1.118-1.059l-0.983-0.427c-0.708-0.295-1.455-0.856-1.455-1.908c0-1.146,1.012-2.028,2.416-2.028
							c0.84,0,1.655,0.348,2.218,0.917l-0.656,0.811c-0.458-0.39-0.946-0.619-1.562-0.619c-0.682,0-1.126,0.319-1.126,0.846
							c0,0.565,0.548,0.774,1.144,1.019l0.97,0.407c0.856,0.356,1.455,0.897,1.455,1.94c0,1.166-0.968,2.139-2.583,2.139
							C-735.143,371.695-736.08,371.312-736.762,370.642z"/>
					</g>
				</g>
			</g>
		</g>
	</g>
	
		<polygon id="nelson-1_00000083773472558302683910000015664753570735579322_" fill="#DA4464" fill-opacity="0.5" stroke="#C2323F" stroke-miterlimit="10" points="
		244.486,320.816 244.486,326.456 244.486,332.095 254.327,322.696 264.169,313.297 264.169,306.994 264.169,300.691 
		254.327,310.754 	"/>
	
		<polygon id="smith-2_00000167355585216673433690000001444851722150932875_" fill="#DA4464" fill-opacity="0.5" stroke="#C2323F" stroke-miterlimit="10" points="
		133.911,431.171 133.911,437.474 133.911,443.776 127.94,443.776 121.969,443.776 127.94,437.474 	"/>
	
		<polygon id="smith-1_00000142869833746345795190000006423656896416341694_" fill="#DA4464" fill-opacity="0.5" stroke="#C2323F" stroke-miterlimit="10" points="
		125.507,451.295 118.652,457.93 111.796,464.565 105.604,463.569 99.412,462.574 106.378,456.935 113.344,451.295 119.426,451.295 
			"/>
	
		<polygon id="garnet-1_00000126285542865437164050000008431873581682839433_" fill="#DA4464" fill-opacity="0.5" stroke="#C2323F" stroke-miterlimit="10" points="
		213.083,364.72 203.574,374.008 194.064,383.296 193.511,378.652 192.959,374.008 203.021,364.498 213.083,354.989 
		213.083,359.854 	"/>
	
		<polygon id="columbia-1_00000157310712463480233140000005883384331433590682_" fill="#DA4464" fill-opacity="0.5" stroke="#C2323F" stroke-miterlimit="10" points="
		333.647,185.463 328.967,191.868 324.286,198.273 324.286,212.931 324.286,227.588 345.534,206.895 366.781,186.202 
		350.214,185.832 	"/>
	
		<polygon id="hicks-1_00000008837620621844162440000000251773429970182055_" fill="#DA4464" fill-opacity="0.5" stroke="#C2323F" stroke-miterlimit="10" points="
		316.681,207.868 308.902,219.043 301.122,230.219 308.902,230.219 316.681,230.219 316.681,219.043 	"/>
</g>
<style>
#g-1939-sanborn-desktop-interaction-img rect, #g-1939-sanborn-desktop-interaction-img circle, #g-1939-sanborn-desktop-interaction-img path, #g-1939-sanborn-desktop-interaction-img line, #g-1939-sanborn-desktop-interaction-img polyline { vector-effect: non-scaling-stroke; }
</style>
</svg>

