<?xml version="1.0" encoding="iso-8859-1"?>
<!-- Generator: Adobe Illustrator 27.3.1, SVG Export Plug-In . SVG Version: 6.00 Build 0)  -->
<svg version="1.1" id="Layer_1" xmlns="http://www.w3.org/2000/svg" xmlns:xlink="http://www.w3.org/1999/xlink" x="0px" y="0px"
	 viewBox="0 0 1200 795.5" style="enable-background:new 0 0 1200 795.5;" xml:space="preserve">
<image style="overflow:visible;" width="2560" height="1304" xlink:href="../../../../../Downloads/streetviewImg (1).png"  transform="matrix(0.6164 0 0 0.6164 -195 -2.7938)">
</image>
<g>
	<path style="fill:none;stroke:#F55449;stroke-width:2;stroke-miterlimit:10;" d="M536.717,499.276
		c-8.746-2.319-17.493-4.637-26.239-6.955c-3.854-1.022-7.928-2.172-10.631-5.103c-2.498-2.709-3.394-6.474-4.867-9.851
		c-3.84-8.806-11.714-15.11-19.518-20.713c-4.217-3.027-8.735-6.25-10.579-11.102c-1.627-4.281-0.855-9.09,0.41-13.491
		c3.064-10.664,8.948-20.505,16.891-28.252c12.761-12.446,30.262-15.481,47.342-20.584c16.879-5.042,34.064-9.873,51.676-10.221
		c17.612-0.348,35.953,4.254,49.041,16.043c0.901-13.809,12.978-24.831,26.189-28.95c13.211-4.119,27.423-2.794,41.194-1.427"/>
	<path style="fill:none;stroke:#F55449;stroke-width:2;stroke-miterlimit:10;" d="M729.32,355.91
		c9.028-0.457,18.056-0.914,27.084-1.371c7.328-0.371,14.675-0.744,21.912-1.953c2.423-0.405,4.924-0.945,6.874-2.44
		c2.357-1.807,3.536-4.706,5.103-7.23c8.483-13.669,27.389-15.55,43.463-14.898c15.972,0.647,31.903,2.331,47.657,5.039
		c2.734-9.88,13.889-15.179,24.132-15.603c10.243-0.423,20.285,2.69,30.501,3.549c10.152,0.854,20.592-0.504,30.399,2.254
		c11.945,3.358,21.455,12.391,32.88,17.231c12.943,5.484,27.908,5.406,40.279,12.081c7.367,3.975,13.597,10.517,15.93,18.556
		c2.333,8.039,0.225,17.526-6.167,22.93c-2.493,2.108-5.609,3.652-7.276,6.46c-1.909,3.216-1.459,7.339-2.95,10.769
		c-2.811,6.466-11.378,8.197-18.307,6.893c-6.929-1.304-13.443-4.704-20.484-5.08c-1.021,10.821-13.708,18.803-23.906,15.041
		c9.348,8.057,5.683,24.482-3.979,32.16c-9.662,7.678-22.744,9.028-35.04,10.079c6.681,11.28,0.436,26.727-10.328,34.21
		c-10.764,7.483-24.55,8.852-37.657,9.121c-14.248,0.292-28.505-0.435-42.692-1.78c-18.519-1.757-39.99-6.765-47.44-23.81
		c-5.811,5.738-13.571,9.465-21.682,10.416c-3.79,12.811,1.047,26.805-1.79,39.86c-2.731,12.567-12.483,22.813-23.97,28.594
		s-24.573,7.599-37.427,7.989c-11.192,0.34-22.388-0.337-33.565-1.014c-11.564-0.7-23.513-1.502-33.81-6.813
		c-10.296-5.311-18.546-16.417-16.783-27.868"/>
</g>
<path style="fill:none;stroke:#F55449;stroke-width:2;stroke-miterlimit:10;" d="M166.784,381.814
	c0.145,0.782,0.323,1.623,0.916,2.152c0.627,0.558,1.541,0.612,2.38,0.631c20.925,0.473,41.687-3.31,62.275-7.078
	c0.666-0.122,1.381-0.269,1.843-0.765c0.518-0.555,0.573-1.386,0.595-2.146c0.52-17.883-1.318-35.833-5.452-53.24
	c-22.063-0.43-44.734-4.606-65.808,1.938c-4.822,1.497-6.6,2.697-6.222,7.456c0.462,5.805,2.189,11.796,3.252,17.528
	C162.638,359.465,164.711,370.639,166.784,381.814z"/>
<path style="fill:none;stroke:#F55449;stroke-width:2;stroke-miterlimit:10;" d="M564.07,500.931
	c0.005,0.394,0.01,0.787,0.016,1.181c-0.328-3.769,1.403-7.418,3.508-10.562s4.638-6.03,6.26-9.448
	c0.813-1.713,1.401-3.564,2.564-5.062c2.182-2.811,6.727-3.745,9.446-1.449c1.232,1.04,1.957,2.543,2.648,4
	c3.744,7.897,7.537,15.952,8.715,24.612"/>
<g>
	<rect x="149" y="281" style="opacity:0.4;fill:#CBCBCB;" width="124" height="25"/>
	<g>
		<g>
			<path style="fill:#FFFFFF;" d="M151.643,296.391c0-1.592,1.088-2.632,2.289-3.272v-0.08c-0.968-0.696-1.745-1.632-1.745-2.969
				c0-2.064,1.632-3.393,3.841-3.393c2.281,0,3.737,1.392,3.737,3.44c0,1.272-0.88,2.337-1.708,2.925v0.08
				c1.176,0.668,2.205,1.604,2.205,3.301c0,1.96-1.724,3.465-4.305,3.465C153.479,299.888,151.643,298.439,151.643,296.391z
				 M158.096,296.351c0-1.384-1.344-1.888-3.061-2.592c-0.788,0.584-1.372,1.416-1.372,2.393c0,1.256,1.028,2.096,2.34,2.096
				C157.228,298.247,158.096,297.535,158.096,296.351z M157.852,290.261c0-1.12-0.688-1.944-1.873-1.944
				c-0.98,0-1.736,0.648-1.736,1.752c0,1.272,1.144,1.84,2.552,2.4C157.476,291.79,157.852,291.062,157.852,290.261z"/>
			<path style="fill:#FFFFFF;" d="M167.055,291.71c0-0.74,0.064-1.909,0.104-2.649h-0.08c-0.32,0.665-0.68,1.296-1.041,1.977
				l-2.312,3.553h7.09v1.785h-9.37v-1.568l5.041-7.89h2.729v12.73h-2.161V291.71z"/>
			<path style="fill:#FFFFFF;" d="M173.146,296.335v-4.681h-1.4v-1.729l1.52-0.104l0.272-2.681h1.912v2.681h2.504v1.833h-2.504
				v4.677c0,1.156,0.448,1.725,1.393,1.725c0.336,0,0.736-0.112,1.024-0.224l0.392,1.696c-0.536,0.176-1.22,0.36-2.008,0.36
				C173.986,299.888,173.146,298.455,173.146,296.335z"/>
			<path style="fill:#FFFFFF;" d="M180.022,285.517h2.305v3.657l-0.096,1.896c0.824-0.776,1.8-1.488,3.145-1.488
				c2.104,0,3.025,1.424,3.025,3.905v6.161h-2.305v-5.865c0-1.616-0.464-2.225-1.528-2.225c-0.864,0-1.432,0.424-2.24,1.225v6.865
				h-2.305V285.517z"/>
			<path style="fill:#FFFFFF;" d="M195.382,286.564h4.121c2.905,0,5.057,1.008,5.057,4.033c0,2.917-2.161,4.241-4.977,4.241h-1.88
				v4.809h-2.32V286.564z M199.391,292.982c1.952,0,2.88-0.776,2.88-2.384c0-1.625-1.016-2.177-2.96-2.177h-1.608v4.561H199.391z"/>
			<path style="fill:#FFFFFF;" d="M206.822,289.821h1.888l0.176,1.752h0.064c0.7-1.28,1.74-1.992,2.792-1.992
				c0.5,0,0.816,0.064,1.112,0.2l-0.4,2c-0.344-0.096-0.6-0.16-1.008-0.16c-0.784,0-1.729,0.536-2.32,2.033v5.993h-2.305V289.821z"
				/>
			<path style="fill:#FFFFFF;" d="M213.634,294.742c0-3.192,2.216-5.161,4.529-5.161c2.657,0,4.057,1.92,4.057,4.665
				c0,0.44-0.048,0.88-0.1,1.121h-6.237c0.192,1.744,1.312,2.736,2.897,2.736c0.84,0,1.56-0.264,2.28-0.712l0.784,1.432
				c-0.936,0.632-2.121,1.064-3.369,1.064C215.762,299.888,213.634,297.983,213.634,294.742z M220.227,293.798
				c0-1.512-0.672-2.433-2.017-2.433c-1.144,0-2.152,0.856-2.353,2.433H220.227z"/>
			<path style="fill:#FFFFFF;" d="M223.773,294.742c0-3.272,2.312-5.161,4.929-5.161c1.249,0,2.161,0.48,2.873,1.104l-1.12,1.496
				c-0.52-0.456-1.016-0.72-1.632-0.72c-1.584,0-2.681,1.312-2.681,3.28c0,1.969,1.081,3.265,2.609,3.265
				c0.768,0,1.472-0.376,2.032-0.849l0.936,1.521c-0.92,0.816-2.088,1.208-3.208,1.208
				C225.83,299.888,223.773,297.999,223.773,294.742z"/>
			<path style="fill:#FFFFFF;" d="M233.397,286.797c0-0.776,0.608-1.305,1.424-1.305c0.816,0,1.424,0.528,1.424,1.305
				c0,0.76-0.608,1.304-1.424,1.304C234.005,288.101,233.397,287.557,233.397,286.797z M233.661,289.821h2.305v9.826h-2.305V289.821
				z"/>
			<path style="fill:#FFFFFF;" d="M238.901,289.821h1.888l0.176,1.328h0.064c0.88-0.856,1.88-1.568,3.225-1.568
				c2.104,0,3.025,1.424,3.025,3.905v6.161h-2.305v-5.865c0-1.616-0.464-2.225-1.528-2.225c-0.864,0-1.432,0.424-2.24,1.225v6.865
				h-2.305V289.821z"/>
			<path style="fill:#FFFFFF;" d="M249.453,294.742c0-3.272,2.312-5.161,4.929-5.161c1.249,0,2.161,0.48,2.873,1.104l-1.12,1.496
				c-0.52-0.456-1.016-0.72-1.632-0.72c-1.584,0-2.681,1.312-2.681,3.28c0,1.969,1.081,3.265,2.609,3.265
				c0.768,0,1.472-0.376,2.032-0.849l0.936,1.521c-0.92,0.816-2.088,1.208-3.208,1.208
				C251.509,299.888,249.453,297.999,249.453,294.742z"/>
			<path style="fill:#FFFFFF;" d="M259.685,296.335v-4.681h-1.4v-1.729l1.52-0.104l0.272-2.681h1.912v2.681h2.505v1.833h-2.505
				v4.677c0,1.156,0.448,1.725,1.393,1.725c0.336,0,0.736-0.112,1.024-0.224l0.392,1.696c-0.536,0.176-1.22,0.36-2.008,0.36
				C260.525,299.888,259.685,298.455,259.685,296.335z"/>
		</g>
	</g>
</g>
<g>
	<rect x="424.458" y="564.062" style="opacity:0.4;fill:#CBCBCB;" width="124" height="53.938"/>
	<g>
		<g>
			<path style="fill:#FFFFFF;" d="M436.723,570.626h4.185c2.688,0,4.665,0.824,4.665,3.226c0,1.231-0.672,2.432-1.816,2.832v0.08
				c1.448,0.328,2.513,1.336,2.513,3.104c0,2.617-2.145,3.841-5.025,3.841h-4.521V570.626z M440.699,576.027
				c1.825,0,2.601-0.712,2.601-1.849c0-1.264-0.856-1.744-2.552-1.744h-1.705v3.593H440.699z M441.003,581.9
				c1.92,0,2.993-0.688,2.993-2.16c0-1.376-1.041-1.977-2.993-1.977h-1.96v4.137H441.003z"/>
			<path style="fill:#FFFFFF;" d="M448.462,581.181v-11.603h2.305v11.723c0,0.568,0.256,0.769,0.496,0.769
				c0.104,0,0.184,0,0.36-0.04l0.288,1.72c-0.28,0.112-0.664,0.2-1.216,0.2C449.062,583.949,448.462,582.893,448.462,581.181z"/>
			<path style="fill:#FFFFFF;" d="M453.234,578.804c0-3.272,2.224-5.16,4.673-5.16c2.448,0,4.673,1.888,4.673,5.16
				c0,3.257-2.225,5.146-4.673,5.146C455.458,583.949,453.234,582.061,453.234,578.804z M460.211,578.804
				c0-1.968-0.864-3.28-2.304-3.28s-2.305,1.312-2.305,3.28c0,1.969,0.864,3.266,2.305,3.266S460.211,580.772,460.211,578.804z"/>
			<path style="fill:#FFFFFF;" d="M464.214,578.804c0-3.272,2.312-5.16,4.929-5.16c1.249,0,2.161,0.479,2.873,1.104l-1.12,1.496
				c-0.52-0.456-1.016-0.72-1.632-0.72c-1.584,0-2.681,1.312-2.681,3.28c0,1.969,1.081,3.266,2.609,3.266
				c0.768,0,1.472-0.377,2.032-0.849l0.936,1.521c-0.92,0.816-2.088,1.208-3.208,1.208
				C466.271,583.949,464.214,582.061,464.214,578.804z"/>
			<path style="fill:#FFFFFF;" d="M474.102,569.578h2.256v8.826h0.064l3.641-4.521h2.521l-3.369,4.001l3.712,5.825h-2.504
				l-2.528-4.265l-1.537,1.769v2.496h-2.256V569.578z"/>
			<path style="fill:#FFFFFF;" d="M483.894,578.804c0-3.192,2.216-5.16,4.529-5.16c2.656,0,4.057,1.92,4.057,4.664
				c0,0.44-0.048,0.881-0.1,1.121h-6.237c0.192,1.744,1.312,2.736,2.897,2.736c0.84,0,1.56-0.265,2.28-0.712l0.784,1.432
				c-0.936,0.633-2.121,1.064-3.369,1.064C486.022,583.949,483.894,582.045,483.894,578.804z M490.487,577.86
				c0-1.513-0.672-2.433-2.017-2.433c-1.144,0-2.152,0.855-2.353,2.433H490.487z"/>
			<path style="fill:#FFFFFF;" d="M494.082,578.804c0-3.2,2.008-5.16,4.161-5.16c1.112,0,1.816,0.416,2.577,1.08l-0.088-1.585
				v-3.561h2.304v14.131h-1.888l-0.176-1.064h-0.064c-0.728,0.729-1.736,1.305-2.792,1.305
				C495.666,583.949,494.082,582.045,494.082,578.804z M500.731,580.94v-4.577c-0.672-0.6-1.336-0.815-2-0.815
				c-1.248,0-2.28,1.184-2.28,3.232c0,2.137,0.816,3.265,2.232,3.265C499.442,582.045,500.083,581.709,500.731,580.94z"/>
			<path style="fill:#FFFFFF;" d="M509.033,573.987l1.44-0.104h4.105v1.833h-5.545V573.987z M510.354,572.867
				c0-2.037,0.936-3.529,3.257-3.529c0.712,0,1.36,0.168,1.8,0.345l-0.44,1.72c-0.353-0.151-0.729-0.231-1.064-0.231
				c-0.816,0-1.248,0.516-1.248,1.656v10.882h-2.305V572.867z"/>
			<path style="fill:#FFFFFF;" d="M516.037,570.858c0-0.776,0.608-1.305,1.424-1.305c0.816,0,1.424,0.528,1.424,1.305
				c0,0.76-0.608,1.305-1.424,1.305C516.646,572.163,516.037,571.618,516.037,570.858z M516.301,573.883h2.305v9.826h-2.305V573.883
				z"/>
			<path style="fill:#FFFFFF;" d="M521.541,573.883h1.888l0.176,1.753h0.064c0.7-1.28,1.74-1.992,2.792-1.992
				c0.5,0,0.816,0.063,1.112,0.199l-0.4,2.001c-0.344-0.097-0.6-0.16-1.008-0.16c-0.784,0-1.729,0.536-2.32,2.032v5.993h-2.305
				V573.883z"/>
			<path style="fill:#FFFFFF;" d="M528.353,578.804c0-3.192,2.216-5.16,4.529-5.16c2.657,0,4.057,1.92,4.057,4.664
				c0,0.44-0.048,0.881-0.1,1.121h-6.237c0.192,1.744,1.312,2.736,2.897,2.736c0.84,0,1.56-0.265,2.28-0.712l0.784,1.432
				c-0.936,0.633-2.121,1.064-3.369,1.064C530.481,583.949,528.353,582.045,528.353,578.804z M534.946,577.86
				c0-1.513-0.672-2.433-2.017-2.433c-1.144,0-2.152,0.855-2.353,2.433H534.946z"/>
			<path style="fill:#FFFFFF;" d="M453.562,593.578h2.305v3.657l-0.096,1.896c0.824-0.776,1.8-1.488,3.145-1.488
				c2.104,0,3.025,1.424,3.025,3.904v6.161h-2.305v-5.865c0-1.616-0.464-2.225-1.528-2.225c-0.864,0-1.432,0.425-2.24,1.225v6.865
				h-2.305V593.578z"/>
			<path style="fill:#FFFFFF;" d="M464.09,611.542l0.424-1.784c0.188,0.056,0.472,0.136,0.704,0.136c1.032,0,1.632-0.704,1.96-1.688
				l0.184-0.616l-3.865-9.706h2.336l1.696,4.817c0.296,0.872,0.576,1.84,0.864,2.776h0.08c0.248-0.912,0.496-1.88,0.752-2.776
				l1.464-4.817h2.225l-3.553,10.274c-0.816,2.213-1.849,3.585-3.993,3.585C464.834,611.742,464.45,611.662,464.09,611.542z"/>
			<path style="fill:#FFFFFF;" d="M474.022,602.804c0-3.2,2.008-5.16,4.161-5.16c1.112,0,1.816,0.416,2.577,1.08l-0.088-1.585
				v-3.561h2.304v14.131h-1.888l-0.176-1.064h-0.064c-0.728,0.729-1.736,1.305-2.792,1.305
				C475.606,607.949,474.022,606.045,474.022,602.804z M480.671,604.94v-4.577c-0.672-0.6-1.336-0.815-2-0.815
				c-1.248,0-2.28,1.184-2.28,3.232c0,2.137,0.816,3.265,2.232,3.265C479.383,606.045,480.023,605.709,480.671,604.94z"/>
			<path style="fill:#FFFFFF;" d="M485.902,597.883h1.888l0.176,1.753h0.064c0.7-1.28,1.74-1.992,2.792-1.992
				c0.5,0,0.816,0.063,1.112,0.199l-0.4,2.001c-0.344-0.097-0.6-0.16-1.008-0.16c-0.784,0-1.729,0.536-2.32,2.032v5.993h-2.305
				V597.883z"/>
			<path style="fill:#FFFFFF;" d="M492.833,605.068c0-2.104,1.745-3.2,5.777-3.633c-0.032-1.056-0.456-1.937-1.784-1.937
				c-0.977,0-1.896,0.44-2.761,0.969l-0.848-1.536c1.08-0.681,2.473-1.288,4.033-1.288c2.457,0,3.665,1.512,3.665,4.248v5.817
				h-1.889l-0.176-1.088h-0.064c-0.88,0.752-1.889,1.328-3.049,1.328C494.018,607.949,492.833,606.781,492.833,605.068z
				 M498.611,605.076v-2.208c-2.665,0.336-3.553,1.032-3.553,2.024c0,0.868,0.592,1.248,1.417,1.248
				C497.274,606.141,497.883,605.749,498.611,605.076z"/>
			<path style="fill:#FFFFFF;" d="M503.682,597.883h1.888l0.176,1.328h0.064c0.88-0.855,1.88-1.567,3.225-1.567
				c2.104,0,3.025,1.424,3.025,3.904v6.161h-2.305v-5.865c0-1.616-0.464-2.225-1.528-2.225c-0.864,0-1.432,0.425-2.24,1.225v6.865
				h-2.305V597.883z"/>
			<path style="fill:#FFFFFF;" d="M515.226,604.396v-4.681h-1.4v-1.729l1.52-0.104l0.272-2.681h1.912v2.681h2.504v1.833h-2.504
				v4.677c0,1.156,0.448,1.725,1.393,1.725c0.336,0,0.736-0.112,1.024-0.225l0.392,1.696c-0.536,0.177-1.22,0.36-2.008,0.36
				C516.065,607.949,515.226,606.517,515.226,604.396z"/>
		</g>
	</g>
</g>
<g>
	<rect x="879" y="530.996" style="opacity:0.4;fill:#CBCBCB;" width="104" height="53.938"/>
	<g>
		<g>
			<path style="fill:#FFFFFF;" d="M897.783,537.561h4.185c2.688,0,4.665,0.824,4.665,3.226c0,1.231-0.672,2.432-1.816,2.832v0.08
				c1.448,0.328,2.513,1.336,2.513,3.104c0,2.617-2.145,3.841-5.025,3.841h-4.521V537.561z M901.76,542.962
				c1.824,0,2.601-0.712,2.601-1.849c0-1.264-0.856-1.744-2.553-1.744h-1.704v3.593H901.76z M902.063,548.835
				c1.921,0,2.993-0.688,2.993-2.16c0-1.376-1.041-1.977-2.993-1.977h-1.96v4.137H902.063z"/>
			<path style="fill:#FFFFFF;" d="M909.522,548.115v-11.603h2.305v11.723c0,0.568,0.256,0.769,0.496,0.769
				c0.104,0,0.184,0,0.36-0.04l0.288,1.72c-0.28,0.112-0.664,0.2-1.217,0.2C910.123,550.884,909.522,549.827,909.522,548.115z"/>
			<path style="fill:#FFFFFF;" d="M914.295,545.738c0-3.272,2.224-5.16,4.673-5.16c2.448,0,4.673,1.888,4.673,5.16
				c0,3.257-2.225,5.146-4.673,5.146C916.519,550.884,914.295,548.995,914.295,545.738z M921.271,545.738
				c0-1.968-0.863-3.28-2.304-3.28s-2.305,1.312-2.305,3.28c0,1.969,0.864,3.266,2.305,3.266S921.271,547.707,921.271,545.738z"/>
			<path style="fill:#FFFFFF;" d="M925.274,545.738c0-3.272,2.312-5.16,4.929-5.16c1.249,0,2.161,0.479,2.873,1.104l-1.12,1.496
				c-0.521-0.456-1.017-0.72-1.633-0.72c-1.584,0-2.681,1.312-2.681,3.28c0,1.969,1.081,3.266,2.609,3.266
				c0.768,0,1.472-0.377,2.032-0.849l0.936,1.521c-0.92,0.816-2.088,1.208-3.208,1.208
				C927.331,550.884,925.274,548.995,925.274,545.738z"/>
			<path style="fill:#FFFFFF;" d="M935.162,536.513h2.257v8.826h0.063l3.642-4.521h2.521l-3.369,4.001l3.713,5.825h-2.505
				l-2.528-4.265l-1.536,1.769v2.496h-2.257V536.513z"/>
			<path style="fill:#FFFFFF;" d="M944.954,545.738c0-3.192,2.217-5.16,4.529-5.16c2.656,0,4.057,1.92,4.057,4.664
				c0,0.44-0.048,0.881-0.101,1.121h-6.237c0.192,1.744,1.312,2.736,2.897,2.736c0.84,0,1.56-0.265,2.28-0.712l0.784,1.432
				c-0.937,0.633-2.121,1.064-3.369,1.064C947.083,550.884,944.954,548.979,944.954,545.738z M951.548,544.795
				c0-1.513-0.673-2.433-2.017-2.433c-1.145,0-2.152,0.855-2.353,2.433H951.548z"/>
			<path style="fill:#FFFFFF;" d="M955.142,545.738c0-3.2,2.009-5.16,4.161-5.16c1.112,0,1.816,0.416,2.576,1.08l-0.088-1.585
				v-3.561h2.305v14.131h-1.889l-0.176-1.064h-0.064c-0.728,0.729-1.736,1.305-2.792,1.305
				C956.727,550.884,955.142,548.979,955.142,545.738z M961.791,547.875v-4.577c-0.672-0.6-1.336-0.815-2-0.815
				c-1.248,0-2.28,1.184-2.28,3.232c0,2.137,0.815,3.265,2.232,3.265C960.503,548.979,961.143,548.644,961.791,547.875z"/>
			<path style="fill:#FFFFFF;" d="M893.116,573.516l1.072-1.465c0.872,0.681,1.717,1.097,2.713,1.097
				c1.072,0,1.576-0.504,1.576-1.176c0-0.824-1.064-1.192-2.112-1.593c-1.288-0.484-2.761-1.225-2.761-2.864
				c0-1.705,1.376-2.937,3.577-2.937c1.368,0,2.464,0.556,3.265,1.176l-1.057,1.416c-0.688-0.504-1.38-0.855-2.152-0.855
				c-0.988,0-1.456,0.472-1.456,1.088c0,0.776,0.992,1.072,2.056,1.464c1.329,0.496,2.817,1.137,2.817,2.969
				c0,1.688-1.337,3.049-3.817,3.049C895.493,574.884,894.076,574.308,893.116,573.516z"/>
			<path style="fill:#FFFFFF;" d="M902.448,561.793c0-0.776,0.608-1.305,1.425-1.305s1.424,0.528,1.424,1.305
				c0,0.76-0.607,1.305-1.424,1.305S902.448,562.553,902.448,561.793z M902.713,564.817h2.305v9.826h-2.305V564.817z"/>
			<path style="fill:#FFFFFF;" d="M907.353,569.738c0-3.2,2.008-5.16,4.16-5.16c1.112,0,1.816,0.416,2.577,1.08l-0.088-1.585v-3.561
				h2.304v14.131h-1.888l-0.177-1.064h-0.063c-0.729,0.729-1.736,1.305-2.793,1.305
				C908.937,574.884,907.353,572.979,907.353,569.738z M914.002,571.875v-4.577c-0.673-0.6-1.337-0.815-2.001-0.815
				c-1.248,0-2.28,1.184-2.28,3.232c0,2.137,0.816,3.265,2.232,3.265C912.713,572.979,913.354,572.644,914.002,571.875z"/>
			<path style="fill:#FFFFFF;" d="M918.584,569.738c0-3.192,2.217-5.16,4.529-5.16c2.656,0,4.057,1.92,4.057,4.664
				c0,0.44-0.048,0.881-0.101,1.121h-6.237c0.192,1.744,1.312,2.736,2.897,2.736c0.84,0,1.56-0.265,2.28-0.712l0.784,1.432
				c-0.937,0.633-2.121,1.064-3.369,1.064C920.713,574.884,918.584,572.979,918.584,569.738z M925.178,568.795
				c0-1.513-0.673-2.433-2.017-2.433c-1.145,0-2.152,0.855-2.353,2.433H925.178z"/>
			<path style="fill:#FFFFFF;" d="M928.388,564.817h2.312l1.192,5.098c0.191,0.952,0.336,1.872,0.512,2.832h0.08
				c0.192-0.96,0.384-1.904,0.624-2.832l1.288-5.098h2.089l1.312,5.098c0.24,0.952,0.432,1.872,0.647,2.832h0.08
				c0.192-0.96,0.337-1.88,0.528-2.832l1.177-5.098h2.152l-2.488,9.826h-2.737l-1.152-4.585c-0.208-0.92-0.384-1.824-0.592-2.853
				h-0.08c-0.192,1.028-0.36,1.948-0.584,2.869l-1.112,4.568h-2.656L928.388,564.817z"/>
			<path style="fill:#FFFFFF;" d="M943.803,572.003c0-2.104,1.745-3.2,5.777-3.633c-0.031-1.056-0.456-1.937-1.784-1.937
				c-0.977,0-1.896,0.44-2.761,0.969l-0.848-1.536c1.08-0.681,2.473-1.288,4.032-1.288c2.457,0,3.665,1.512,3.665,4.248v5.817
				h-1.889l-0.176-1.088h-0.063c-0.881,0.752-1.889,1.328-3.049,1.328C944.987,574.884,943.803,573.716,943.803,572.003z
				 M949.58,572.011v-2.208c-2.664,0.336-3.553,1.032-3.553,2.024c0,0.868,0.593,1.248,1.417,1.248
				C948.244,573.075,948.853,572.684,949.58,572.011z"/>
			<path style="fill:#FFFFFF;" d="M954.651,572.115v-11.603h2.305v11.723c0,0.568,0.256,0.769,0.496,0.769
				c0.104,0,0.184,0,0.359-0.04l0.288,1.72c-0.28,0.112-0.664,0.2-1.216,0.2C955.251,574.884,954.651,573.827,954.651,572.115z"/>
			<path style="fill:#FFFFFF;" d="M960.071,560.513h2.256v8.826h0.064l3.641-4.521h2.521l-3.368,4.001l3.712,5.825h-2.504
				l-2.528-4.265l-1.537,1.769v2.496h-2.256V560.513z"/>
		</g>
	</g>
</g>
<g>
	<g>
		<path style="fill:#F1F1F1;" d="M996.412,780.217h1.034l2.849,4.948l0.85,1.63h0.048c-0.05-0.794-0.127-1.682-0.127-2.505v-4.073
			h0.951v7.871h-1.034l-2.85-4.953l-0.85-1.625h-0.048c0.051,0.796,0.128,1.636,0.128,2.459v4.119h-0.951V780.217z"/>
		<path style="fill:#F1F1F1;" d="M1003.65,785.181c0-1.945,1.272-3.066,2.701-3.066s2.701,1.121,2.701,3.066
			c0,1.93-1.272,3.051-2.701,3.051S1003.65,787.11,1003.65,785.181z M1008.034,785.181c0-1.336-0.68-2.245-1.683-2.245
			s-1.682,0.909-1.682,2.245s0.679,2.229,1.682,2.229S1008.034,786.517,1008.034,785.181z"/>
		<path style="fill:#F1F1F1;" d="M1009.747,782.258h1.018l1.103,3.312c0.174,0.569,0.363,1.162,0.537,1.719h0.048
			c0.175-0.557,0.364-1.149,0.538-1.719l1.103-3.312h0.967l-2.062,5.83h-1.146L1009.747,782.258z"/>
		<path style="fill:#F1F1F1;" d="M1015.758,785.181c0-1.897,1.278-3.066,2.62-3.066c1.487,0,2.327,1.067,2.327,2.735
			c0,0.208-0.018,0.416-0.046,0.561h-3.927c0.071,1.235,0.826,2.036,1.938,2.036c0.56,0,1.019-0.181,1.45-0.467l0.354,0.647
			c-0.511,0.335-1.132,0.604-1.925,0.604C1016.995,788.231,1015.758,787.096,1015.758,785.181z M1019.833,784.703
			c0-1.168-0.525-1.803-1.438-1.803c-0.819,0-1.552,0.657-1.672,1.803H1019.833z"/>
		<path style="fill:#F1F1F1;" d="M1022.143,782.258h0.815l0.083,0.846h0.033c0.51-0.552,1.119-0.989,1.813-0.989
			c0.892,0,1.369,0.427,1.61,1.11c0.605-0.655,1.213-1.11,1.923-1.11c1.197,0,1.773,0.792,1.773,2.279v3.694h-0.986v-3.566
			c0-1.086-0.344-1.551-1.085-1.551c-0.452,0-0.922,0.296-1.461,0.896v4.222h-0.987v-3.566c0-1.086-0.343-1.551-1.084-1.551
			c-0.438,0-0.922,0.296-1.462,0.896v4.222h-0.986V782.258z"/>
		<path style="fill:#F1F1F1;" d="M1033.005,787.485h-0.033l-0.092,0.603h-0.789v-8.545h0.986v2.338l-0.032,1.045
			c0.533-0.459,1.183-0.812,1.831-0.812c1.507,0,2.316,1.169,2.316,2.966c0,1.991-1.193,3.151-2.525,3.151
			C1034.124,788.231,1033.521,787.953,1033.005,787.485z M1036.173,785.094c0-1.287-0.439-2.149-1.537-2.149
			c-0.493,0-1.006,0.271-1.559,0.796v3.056c0.514,0.442,1.035,0.605,1.42,0.605C1035.462,787.401,1036.173,786.533,1036.173,785.094
			z"/>
		<path style="fill:#F1F1F1;" d="M1038.294,785.181c0-1.897,1.278-3.066,2.62-3.066c1.487,0,2.327,1.067,2.327,2.735
			c0,0.208-0.018,0.416-0.046,0.561h-3.927c0.071,1.235,0.826,2.036,1.938,2.036c0.56,0,1.019-0.181,1.45-0.467l0.354,0.647
			c-0.511,0.335-1.132,0.604-1.925,0.604C1039.531,788.231,1038.294,787.096,1038.294,785.181z M1042.369,784.703
			c0-1.168-0.525-1.803-1.438-1.803c-0.819,0-1.552,0.657-1.672,1.803H1042.369z"/>
		<path style="fill:#F1F1F1;" d="M1044.679,782.258h0.815l0.083,1.062h0.033c0.405-0.739,1.001-1.205,1.657-1.205
			c0.258,0,0.439,0.032,0.622,0.12l-0.184,0.865c-0.201-0.063-0.332-0.096-0.565-0.096c-0.493,0-1.081,0.354-1.476,1.341v3.743
			h-0.986V782.258z"/>
		<path style="fill:#F1F1F1;" d="M1048.426,789.546c0.677-0.297,1.085-0.827,1.08-1.487l-0.105-0.886l0.482,0.72
			c-0.132,0.159-0.311,0.205-0.499,0.205c-0.381,0-0.714-0.24-0.714-0.688c0-0.429,0.34-0.688,0.731-0.688
			c0.524,0,0.837,0.438,0.837,1.158c0,1.036-0.604,1.843-1.571,2.244L1048.426,789.546z"/>
		<path style="fill:#F1F1F1;" d="M1053.726,787.504c2.299-2.292,3.6-3.669,3.6-4.913c0-0.873-0.476-1.492-1.451-1.492
			c-0.641,0-1.19,0.405-1.626,0.916l-0.573-0.558c0.64-0.703,1.329-1.162,2.32-1.162c1.414,0,2.296,0.893,2.296,2.252
			c0,1.436-1.318,2.862-3.122,4.759c0.414-0.033,0.89-0.065,1.286-0.065h2.211v0.848h-4.94V787.504z"/>
		<path style="fill:#F1F1F1;" d="M1059.741,784.234c0-2.564,0.924-3.939,2.451-3.939s2.451,1.38,2.451,3.939
			c0,2.565-0.924,3.997-2.451,3.997S1059.741,786.8,1059.741,784.234z M1063.687,784.234c0-2.242-0.605-3.145-1.494-3.145
			s-1.494,0.902-1.494,3.145c0,2.243,0.605,3.202,1.494,3.202S1063.687,786.478,1063.687,784.234z"/>
		<path style="fill:#F1F1F1;" d="M1065.653,787.504c2.299-2.292,3.6-3.669,3.6-4.913c0-0.873-0.476-1.492-1.451-1.492
			c-0.641,0-1.19,0.405-1.626,0.916l-0.573-0.558c0.64-0.703,1.329-1.162,2.32-1.162c1.414,0,2.296,0.893,2.296,2.252
			c0,1.436-1.318,2.862-3.122,4.759c0.414-0.033,0.89-0.065,1.286-0.065h2.211v0.848h-4.94V787.504z"/>
		<path style="fill:#F1F1F1;" d="M1072.083,787.267h1.752v-5.632h-1.394V781c0.697-0.122,1.203-0.308,1.627-0.562h0.753v6.828h1.58
			v0.821h-4.318V787.267z"/>
		<path style="fill:#F1F1F1;" d="M1079.647,782.258h1.018l1.103,3.312c0.174,0.569,0.363,1.162,0.537,1.719h0.048
			c0.175-0.557,0.364-1.149,0.538-1.719l1.103-3.312h0.967l-2.062,5.83h-1.146L1079.647,782.258z"/>
		<path style="fill:#F1F1F1;" d="M1085.91,780.422c0-0.387,0.298-0.637,0.682-0.637s0.682,0.25,0.682,0.637
			c0,0.373-0.298,0.638-0.682,0.638S1085.91,780.795,1085.91,780.422z M1086.091,782.258h0.986v5.83h-0.986V782.258z"/>
		<path style="fill:#F1F1F1;" d="M1088.682,786.574c0-1.27,1.097-1.905,3.581-2.175c-0.003-0.75-0.251-1.473-1.203-1.473
			c-0.675,0-1.282,0.319-1.739,0.625l-0.386-0.677c0.536-0.352,1.354-0.761,2.29-0.761c1.423,0,2.024,0.945,2.024,2.396v3.577
			h-0.814l-0.084-0.697h-0.032c-0.556,0.462-1.205,0.841-1.928,0.841C1089.414,788.231,1088.682,787.626,1088.682,786.574z
			 M1092.263,786.665v-1.619c-1.954,0.235-2.614,0.714-2.614,1.459c0,0.662,0.449,0.932,1.021,0.932
			C1091.233,787.437,1091.698,787.163,1092.263,786.665z"/>
		<path style="fill:#F1F1F1;" d="M1097.127,784.159c0-2.539,1.525-4.087,3.612-4.087c1.091,0,1.81,0.495,2.27,0.971l-0.549,0.652
			c-0.398-0.411-0.903-0.742-1.694-0.742c-1.586,0-2.604,1.219-2.604,3.18c0,1.979,0.936,3.219,2.615,3.219
			c0.564,0,1.107-0.17,1.418-0.463v-2.05h-1.667v-0.83h2.58v3.309c-0.506,0.528-1.368,0.914-2.426,0.914
			C1098.604,788.231,1097.127,786.716,1097.127,784.159z"/>
		<path style="fill:#F1F1F1;" d="M1104.463,785.181c0-1.945,1.272-3.066,2.701-3.066s2.701,1.121,2.701,3.066
			c0,1.93-1.272,3.051-2.701,3.051S1104.463,787.11,1104.463,785.181z M1108.847,785.181c0-1.336-0.68-2.245-1.683-2.245
			s-1.682,0.909-1.682,2.245s0.679,2.229,1.682,2.229S1108.847,786.517,1108.847,785.181z"/>
		<path style="fill:#F1F1F1;" d="M1110.967,785.181c0-1.945,1.272-3.066,2.701-3.066s2.701,1.121,2.701,3.066
			c0,1.93-1.272,3.051-2.701,3.051S1110.967,787.11,1110.967,785.181z M1115.351,785.181c0-1.336-0.68-2.245-1.683-2.245
			s-1.682,0.909-1.682,2.245s0.679,2.229,1.682,2.229S1115.351,786.517,1115.351,785.181z"/>
		<path style="fill:#F1F1F1;" d="M1117.462,789.208c0-0.5,0.318-0.97,0.854-1.318v-0.048c-0.297-0.186-0.521-0.497-0.521-0.956
			c0-0.483,0.34-0.869,0.642-1.082v-0.048c-0.387-0.303-0.755-0.869-0.755-1.565c0-1.274,1.005-2.076,2.188-2.076
			c0.32,0,0.61,0.062,0.823,0.144h2.033v0.76h-1.197c0.275,0.265,0.476,0.702,0.476,1.199c0,1.249-0.943,2.021-2.135,2.021
			c-0.283,0-0.605-0.069-0.869-0.197c-0.211,0.176-0.371,0.369-0.371,0.688c0,0.37,0.24,0.633,1.021,0.633h1.135
			c1.354,0,2.036,0.426,2.036,1.393c0,1.083-1.146,2.016-2.947,2.016C1118.446,790.771,1117.462,790.211,1117.462,789.208z
			 M1121.855,788.902c0-0.539-0.409-0.724-1.175-0.724h-1.006c-0.223,0-0.499-0.024-0.758-0.087
			c-0.417,0.295-0.595,0.643-0.595,0.978c0,0.626,0.631,1.021,1.69,1.021C1121.124,790.091,1121.855,789.511,1121.855,788.902z
			 M1121.107,784.19c0-0.847-0.552-1.361-1.238-1.361c-0.688,0-1.239,0.507-1.239,1.361c0,0.849,0.567,1.386,1.239,1.386
			S1121.107,785.039,1121.107,784.19z"/>
		<path style="fill:#F1F1F1;" d="M1123.951,786.917v-7.374h0.986v7.446c0,0.302,0.132,0.421,0.275,0.421
			c0.057,0,0.105,0,0.216-0.023l0.134,0.753c-0.14,0.051-0.309,0.092-0.567,0.092
			C1124.256,788.231,1123.951,787.76,1123.951,786.917z"/>
		<path style="fill:#F1F1F1;" d="M1126.578,785.181c0-1.897,1.278-3.066,2.62-3.066c1.487,0,2.327,1.067,2.327,2.735
			c0,0.208-0.018,0.416-0.046,0.561h-3.927c0.071,1.235,0.826,2.036,1.938,2.036c0.56,0,1.019-0.181,1.45-0.467l0.354,0.647
			c-0.511,0.335-1.132,0.604-1.925,0.604C1127.815,788.231,1126.578,787.096,1126.578,785.181z M1130.653,784.703
			c0-1.168-0.525-1.803-1.438-1.803c-0.819,0-1.552,0.657-1.672,1.803H1130.653z"/>
		<path style="fill:#F1F1F1;" d="M1134.885,787.063l0.6-0.688c0.566,0.588,1.354,0.976,2.172,0.976c1.032,0,1.646-0.515,1.646-1.279
			c0-0.805-0.57-1.061-1.313-1.385l-1.131-0.499c-0.733-0.313-1.594-0.869-1.594-2.027c0-1.202,1.048-2.089,2.478-2.089
			c0.934,0,1.766,0.404,2.318,0.976l-0.531,0.644c-0.482-0.455-1.06-0.738-1.787-0.738c-0.882,0-1.467,0.445-1.467,1.149
			c0,0.758,0.687,1.042,1.303,1.303l1.122,0.485c0.91,0.392,1.621,0.934,1.621,2.104c0,1.243-1.027,2.236-2.682,2.236
			C1136.533,788.231,1135.573,787.781,1134.885,787.063z"/>
		<path style="fill:#F1F1F1;" d="M1141.944,786.285v-3.224h-0.867v-0.747l0.911-0.057l0.119-1.635h0.824v1.635h1.579v0.804h-1.579
			v3.241c0,0.713,0.229,1.125,0.901,1.125c0.207,0,0.475-0.078,0.664-0.156l0.19,0.744c-0.327,0.111-0.718,0.216-1.082,0.216
			C1142.365,788.231,1141.944,787.445,1141.944,786.285z"/>
		<path style="fill:#F1F1F1;" d="M1145.827,782.258h0.815l0.083,1.062h0.033c0.405-0.739,1.001-1.205,1.657-1.205
			c0.258,0,0.439,0.032,0.622,0.12l-0.184,0.865c-0.201-0.063-0.332-0.096-0.565-0.096c-0.493,0-1.081,0.354-1.476,1.341v3.743
			h-0.986V782.258z"/>
		<path style="fill:#F1F1F1;" d="M1149.559,785.181c0-1.897,1.278-3.066,2.62-3.066c1.487,0,2.327,1.067,2.327,2.735
			c0,0.208-0.018,0.416-0.046,0.561h-3.927c0.071,1.235,0.826,2.036,1.938,2.036c0.56,0,1.019-0.181,1.45-0.467l0.354,0.647
			c-0.511,0.335-1.132,0.604-1.925,0.604C1150.796,788.231,1149.559,787.096,1149.559,785.181z M1153.634,784.703
			c0-1.168-0.525-1.803-1.438-1.803c-0.819,0-1.552,0.657-1.672,1.803H1153.634z"/>
		<path style="fill:#F1F1F1;" d="M1155.511,785.181c0-1.897,1.278-3.066,2.62-3.066c1.487,0,2.327,1.067,2.327,2.735
			c0,0.208-0.018,0.416-0.046,0.561h-3.927c0.071,1.235,0.826,2.036,1.938,2.036c0.56,0,1.019-0.181,1.45-0.467l0.354,0.647
			c-0.511,0.335-1.132,0.604-1.925,0.604C1156.748,788.231,1155.511,787.096,1155.511,785.181z M1159.586,784.703
			c0-1.168-0.525-1.803-1.438-1.803c-0.819,0-1.552,0.657-1.672,1.803H1159.586z"/>
		<path style="fill:#F1F1F1;" d="M1162.068,786.285v-3.224h-0.867v-0.747l0.912-0.057l0.118-1.635h0.823v1.635h1.58v0.804h-1.58
			v3.241c0,0.713,0.23,1.125,0.902,1.125c0.207,0,0.475-0.078,0.664-0.156l0.19,0.744c-0.327,0.111-0.718,0.216-1.082,0.216
			C1162.489,788.231,1162.068,787.445,1162.068,786.285z"/>
		<path style="fill:#F1F1F1;" d="M1164.969,780.217h1.062l1.271,4.255c0.276,0.926,0.466,1.677,0.757,2.6h0.049
			c0.291-0.923,0.485-1.674,0.757-2.6l1.262-4.255h1.02l-2.5,7.871h-1.16L1164.969,780.217z"/>
		<path style="fill:#F1F1F1;" d="M1171.95,780.422c0-0.387,0.298-0.637,0.682-0.637s0.682,0.25,0.682,0.637
			c0,0.373-0.298,0.638-0.682,0.638S1171.95,780.795,1171.95,780.422z M1172.131,782.258h0.986v5.83h-0.986V782.258z"/>
		<path style="fill:#F1F1F1;" d="M1174.65,785.181c0-1.897,1.278-3.066,2.62-3.066c1.487,0,2.327,1.067,2.327,2.735
			c0,0.208-0.018,0.416-0.046,0.561h-3.927c0.071,1.235,0.826,2.036,1.938,2.036c0.56,0,1.019-0.181,1.45-0.467l0.354,0.647
			c-0.511,0.335-1.132,0.604-1.925,0.604C1175.888,788.231,1174.65,787.096,1174.65,785.181z M1178.726,784.703
			c0-1.168-0.525-1.803-1.438-1.803c-0.819,0-1.552,0.657-1.672,1.803H1178.726z"/>
		<path style="fill:#F1F1F1;" d="M1180.34,782.258h1.008l0.865,3.368c0.126,0.554,0.234,1.077,0.346,1.625h0.048
			c0.126-0.548,0.253-1.08,0.396-1.625l0.9-3.368h0.963l0.909,3.368c0.144,0.554,0.271,1.077,0.405,1.625h0.048
			c0.126-0.548,0.235-1.071,0.361-1.625l0.85-3.368h0.94l-1.564,5.83h-1.201l-0.841-3.133c-0.142-0.552-0.253-1.088-0.395-1.68
			h-0.048c-0.126,0.592-0.243,1.144-0.4,1.694l-0.816,3.118h-1.153L1180.34,782.258z"/>
	</g>
</g>
<path style="fill:none;stroke:#FFFFFF;stroke-width:1.5;stroke-miterlimit:10;" d="M777.872,542.93
	c33.709,1.196,67.418,2.392,101.128,3.589"/>
<path style="fill:none;stroke:#FFFFFF;stroke-width:1.5;stroke-miterlimit:10;" d="M560.081,499.28
	c0.907-0.009,1.663-0.999,1.434-1.876c-27.528,10.025-47.758,37.541-49.116,66.805"/>
</svg>
