<?xml version="1.0" encoding="utf-8"?>
<!-- Generator: Adobe Illustrator 27.3.1, SVG Export Plug-In . SVG Version: 6.00 Build 0)  -->
<svg version="1.1" id="Layer_1" xmlns="http://www.w3.org/2000/svg" xmlns:xlink="http://www.w3.org/1999/xlink" x="0px" y="0px"
	 viewBox="0 0 750 500" style="enable-background:new 0 0 750 500;" xml:space="preserve">
<style type="text/css">
	.st0{fill:none;stroke:#F55449;stroke-width:2;stroke-miterlimit:10;}
	.st1{opacity:0.4;fill:#CBCBCB;enable-background:new    ;}
	.st2{fill:#FFFFFF;}
	.st3{fill:#F1F1F1;}
	.st4{fill:none;stroke:#FFFFFF;stroke-width:1.5;stroke-miterlimit:10;}
	.st5{fill:none;}
	.st6{font-family:'MyriadPro-Regular';}
	.st7{font-size:12px;}
</style>
<image style="overflow:visible;enable-background:new    ;" width="1947" height="1296" xlink:href="3053F5BB7B829B6F.jpg"  transform="matrix(0.3858 0 0 0.3858 -2.4033 0)">
</image>
<g>
	<path class="st0" d="M333.5,314.6c-5.5-1.5-10.9-2.9-16.4-4.4c-2.4-0.6-5-1.4-6.7-3.2c-1.6-1.7-2.1-4.1-3-6.2
		c-2.4-5.5-7.3-9.5-12.2-13c-2.6-1.9-5.5-3.9-6.6-6.9c-1-2.7-0.5-5.7,0.3-8.4c1.9-6.7,5.6-12.8,10.6-17.7c8-7.8,18.9-9.7,29.6-12.9
		c10.6-3.2,21.3-6.2,32.3-6.4s22.5,2.7,30.7,10c0.6-8.6,8.1-15.5,16.4-18.1c8.3-2.6,17.2-1.7,25.8-0.9"/>
	<path class="st0" d="M454.1,224.9c5.7-0.3,11.3-0.6,17-0.9c4.6-0.2,9.2-0.5,13.7-1.2c1.5-0.3,3.1-0.6,4.3-1.5
		c1.5-1.1,2.2-2.9,3.2-4.5c5.3-8.6,17.1-9.7,27.2-9.3c10,0.4,20,1.5,29.8,3.2c1.7-6.2,8.7-9.5,15.1-9.8c6.4-0.3,12.7,1.7,19.1,2.2
		c6.4,0.5,12.9-0.3,19,1.4c7.5,2.1,13.4,7.8,20.6,10.8c8.1,3.4,17.5,3.4,25.2,7.6c4.6,2.5,8.5,6.6,10,11.6c1.5,5,0.1,11-3.9,14.4
		c-1.6,1.3-3.5,2.3-4.6,4c-1.2,2-0.9,4.6-1.8,6.7c-1.8,4-7.1,5.1-11.5,4.3c-4.3-0.8-8.4-2.9-12.8-3.2c-0.6,6.8-8.6,11.8-15,9.4
		c5.9,5,3.6,15.3-2.5,20.1c-6,4.8-14.2,5.7-21.9,6.3c4.2,7.1,0.3,16.7-6.5,21.4c-6.7,4.7-15.4,5.5-23.6,5.7
		c-8.9,0.2-17.8-0.3-26.7-1.1c-11.6-1.1-25-4.2-29.7-14.9c-3.6,3.6-8.5,5.9-13.6,6.5c-2.4,8,0.7,16.8-1.1,24.9
		c-1.7,7.9-7.8,14.3-15,17.9c-7.2,3.6-15.4,4.8-23.4,5c-7,0.2-14-0.2-21-0.6c-7.2-0.4-14.7-0.9-21.2-4.3
		c-6.4-3.3-11.6-10.3-10.5-17.4"/>
</g>
<path class="st0" d="M102,241.1c0.1,0.5,0.2,1,0.6,1.3c0.4,0.3,1,0.4,1.5,0.4c13.1,0.3,26.1-2.1,39-4.4c0.4-0.1,0.9-0.2,1.2-0.5
	c0.3-0.3,0.4-0.9,0.4-1.3c0.3-11.2-0.8-22.4-3.4-33.3c-13.8-0.3-28-2.9-41.2,1.2c-3,0.9-4.1,1.7-3.9,4.7c0.3,3.6,1.4,7.4,2,11
	C99.4,227.1,100.7,234.1,102,241.1z"/>
<path class="st0" d="M350.6,315.6c0,0.2,0,0.5,0,0.7c-0.2-2.4,0.9-4.6,2.2-6.6c1.3-2,2.9-3.8,3.9-5.9c0.5-1.1,0.9-2.2,1.6-3.2
	c1.4-1.8,4.2-2.3,5.9-0.9c0.8,0.7,1.2,1.6,1.7,2.5c2.3,4.9,4.7,10,5.5,15.4"/>
<rect x="90.9" y="178" class="st1" width="77.6" height="15.6"/>
<g>
	<rect x="263.3" y="355.1" class="st1" width="77.6" height="33.8"/>
	<g>
		<g>
			<path class="st2" d="M270.9,359.3h2.6c1.7,0,2.9,0.5,2.9,2c0,0.8-0.4,1.5-1.1,1.8v0.1c0.9,0.2,1.6,0.8,1.6,1.9
				c0,1.6-1.3,2.4-3.1,2.4h-2.8L270.9,359.3L270.9,359.3z M273.4,362.6c1.1,0,1.6-0.4,1.6-1.2c0-0.8-0.5-1.1-1.6-1.1h-1.1v2.2H273.4
				z M273.6,366.3c1.2,0,1.9-0.4,1.9-1.4c0-0.9-0.7-1.2-1.9-1.2h-1.2v2.6L273.6,366.3L273.6,366.3z"/>
			<path class="st2" d="M278.3,365.9v-7.3h1.4v7.3c0,0.4,0.2,0.5,0.3,0.5c0.1,0,0.1,0,0.2,0l0.2,1.1c-0.2,0.1-0.4,0.1-0.8,0.1
				C278.7,367.6,278.3,366.9,278.3,365.9z"/>
			<path class="st2" d="M281.3,364.4c0-2,1.4-3.2,2.9-3.2c1.5,0,2.9,1.2,2.9,3.2c0,2-1.4,3.2-2.9,3.2
				C282.7,367.6,281.3,366.4,281.3,364.4z M285.6,364.4c0-1.2-0.5-2.1-1.4-2.1s-1.4,0.8-1.4,2.1c0,1.2,0.5,2,1.4,2
				C285.1,366.4,285.6,365.6,285.6,364.4z"/>
			<path class="st2" d="M288.1,364.4c0-2,1.4-3.2,3.1-3.2c0.8,0,1.4,0.3,1.8,0.7l-0.7,0.9c-0.3-0.3-0.6-0.5-1-0.5
				c-1,0-1.7,0.8-1.7,2.1c0,1.2,0.7,2,1.6,2c0.5,0,0.9-0.2,1.3-0.5l0.6,1c-0.6,0.5-1.3,0.8-2,0.8
				C289.4,367.6,288.1,366.4,288.1,364.4z"/>
			<path class="st2" d="M294.3,358.6h1.4v5.5h0l2.3-2.8h1.6l-2.1,2.5l2.3,3.6h-1.6l-1.6-2.7l-1,1.1v1.6h-1.4V358.6z"/>
			<path class="st2" d="M300.5,364.4c0-2,1.4-3.2,2.8-3.2c1.7,0,2.5,1.2,2.5,2.9c0,0.3,0,0.6-0.1,0.7h-3.9c0.1,1.1,0.8,1.7,1.8,1.7
				c0.5,0,1-0.2,1.4-0.4l0.5,0.9c-0.6,0.4-1.3,0.7-2.1,0.7C301.8,367.6,300.5,366.4,300.5,364.4z M304.6,363.8
				c0-0.9-0.4-1.5-1.3-1.5c-0.7,0-1.3,0.5-1.5,1.5H304.6z"/>
			<path class="st2" d="M306.8,364.4c0-2,1.3-3.2,2.6-3.2c0.7,0,1.1,0.3,1.6,0.7l-0.1-1v-2.2h1.4v8.8h-1.2l-0.1-0.7h0
				c-0.5,0.5-1.1,0.8-1.7,0.8C307.8,367.6,306.8,366.4,306.8,364.4z M311,365.7v-2.9c-0.4-0.4-0.8-0.5-1.3-0.5c-0.8,0-1.4,0.7-1.4,2
				c0,1.3,0.5,2,1.4,2C310.2,366.4,310.6,366.2,311,365.7z"/>
			<path class="st2" d="M316.2,361.4l0.9-0.1h2.6v1.1h-3.5V361.4z M317,360.7c0-1.3,0.6-2.2,2-2.2c0.4,0,0.9,0.1,1.1,0.2l-0.3,1.1
				c-0.2-0.1-0.5-0.1-0.7-0.1c-0.5,0-0.8,0.3-0.8,1v6.8H317V360.7z"/>
			<path class="st2" d="M320.6,359.4c0-0.5,0.4-0.8,0.9-0.8s0.9,0.3,0.9,0.8c0,0.5-0.4,0.8-0.9,0.8
				C321,360.2,320.6,359.9,320.6,359.4z M320.7,361.3h1.4v6.2h-1.4V361.3z"/>
			<path class="st2" d="M324,361.3h1.2l0.1,1.1h0c0.4-0.8,1.1-1.2,1.7-1.2c0.3,0,0.5,0,0.7,0.1l-0.3,1.3c-0.2-0.1-0.4-0.1-0.6-0.1
				c-0.5,0-1.1,0.3-1.5,1.3v3.8H324L324,361.3L324,361.3z"/>
			<path class="st2" d="M328.3,364.4c0-2,1.4-3.2,2.8-3.2c1.7,0,2.5,1.2,2.5,2.9c0,0.3,0,0.6-0.1,0.7h-3.9c0.1,1.1,0.8,1.7,1.8,1.7
				c0.5,0,1-0.2,1.4-0.4l0.5,0.9c-0.6,0.4-1.3,0.7-2.1,0.7C329.6,367.6,328.3,366.4,328.3,364.4z M332.4,363.8
				c0-0.9-0.4-1.5-1.3-1.5c-0.7,0-1.3,0.5-1.5,1.5H332.4z"/>
			<path class="st2" d="M281.5,373.6h1.4v2.3l-0.1,1.2c0.5-0.5,1.1-0.9,2-0.9c1.3,0,1.9,0.9,1.9,2.4v3.9h-1.4v-3.7
				c0-1-0.3-1.4-1-1.4c-0.5,0-0.9,0.3-1.4,0.8v4.3h-1.4L281.5,373.6L281.5,373.6z"/>
			<path class="st2" d="M288.1,384.9l0.3-1.1c0.1,0,0.3,0.1,0.4,0.1c0.6,0,1-0.4,1.2-1.1l0.1-0.4l-2.4-6.1h1.5l1.1,3
				c0.2,0.5,0.4,1.2,0.5,1.7h0.1c0.2-0.6,0.3-1.2,0.5-1.7l0.9-3h1.4l-2.2,6.4c-0.5,1.4-1.2,2.2-2.5,2.2
				C288.5,385,288.3,384.9,288.1,384.9z"/>
			<path class="st2" d="M294.3,379.4c0-2,1.3-3.2,2.6-3.2c0.7,0,1.1,0.3,1.6,0.7l-0.1-1v-2.2h1.4v8.8h-1.2l-0.1-0.7h0
				c-0.5,0.5-1.1,0.8-1.7,0.8C295.3,382.6,294.3,381.4,294.3,379.4z M298.4,380.7v-2.9c-0.4-0.4-0.8-0.5-1.3-0.5
				c-0.8,0-1.4,0.7-1.4,2c0,1.3,0.5,2,1.4,2C297.6,381.4,298,381.2,298.4,380.7z"/>
			<path class="st2" d="M301.7,376.3h1.2l0.1,1.1h0c0.4-0.8,1.1-1.2,1.7-1.2c0.3,0,0.5,0,0.7,0.1l-0.3,1.3c-0.2-0.1-0.4-0.1-0.6-0.1
				c-0.5,0-1.1,0.3-1.5,1.3v3.8h-1.4L301.7,376.3L301.7,376.3z"/>
			<path class="st2" d="M306.1,380.8c0-1.3,1.1-2,3.6-2.3c0-0.7-0.3-1.2-1.1-1.2c-0.6,0-1.2,0.3-1.7,0.6l-0.5-1
				c0.7-0.4,1.5-0.8,2.5-0.8c1.5,0,2.3,0.9,2.3,2.7v3.6h-1.2l-0.1-0.7h0c-0.6,0.5-1.2,0.8-1.9,0.8
				C306.8,382.6,306.1,381.9,306.1,380.8z M309.7,380.8v-1.4c-1.7,0.2-2.2,0.6-2.2,1.3c0,0.5,0.4,0.8,0.9,0.8
				C308.8,381.5,309.2,381.2,309.7,380.8z"/>
			<path class="st2" d="M312.8,376.3h1.2l0.1,0.8h0c0.6-0.5,1.2-1,2-1c1.3,0,1.9,0.9,1.9,2.4v3.9h-1.4v-3.7c0-1-0.3-1.4-1-1.4
				c-0.5,0-0.9,0.3-1.4,0.8v4.3h-1.4V376.3z"/>
			<path class="st2" d="M320.1,380.4v-2.9h-0.9v-1.1l1-0.1l0.2-1.7h1.2v1.7h1.6v1.1h-1.6v2.9c0,0.7,0.3,1.1,0.9,1.1
				c0.2,0,0.5-0.1,0.6-0.1l0.2,1.1c-0.3,0.1-0.8,0.2-1.3,0.2C320.6,382.6,320.1,381.7,320.1,380.4z"/>
		</g>
	</g>
</g>
<rect x="547.8" y="334.4" class="st1" width="65.1" height="33.8"/>
<g>
	<g>
		<path class="st3" d="M621.2,490.4h0.6l1.8,3.1l0.5,1h0c0-0.5-0.1-1.1-0.1-1.6v-2.5h0.6v4.9h-0.6l-1.8-3.1l-0.5-1h0
			c0,0.5,0.1,1,0.1,1.5v2.6h-0.6V490.4z"/>
		<path class="st3" d="M625.8,493.5c0-1.2,0.8-1.9,1.7-1.9s1.7,0.7,1.7,1.9c0,1.2-0.8,1.9-1.7,1.9S625.8,494.7,625.8,493.5z
			 M628.5,493.5c0-0.8-0.4-1.4-1.1-1.4s-1.1,0.6-1.1,1.4c0,0.8,0.4,1.4,1.1,1.4S628.5,494.4,628.5,493.5z"/>
		<path class="st3" d="M629.6,491.7h0.6l0.7,2.1c0.1,0.4,0.2,0.7,0.3,1.1h0c0.1-0.3,0.2-0.7,0.3-1.1l0.7-2.1h0.6l-1.3,3.6h-0.7
			L629.6,491.7z"/>
		<path class="st3" d="M633.4,493.5c0-1.2,0.8-1.9,1.6-1.9c0.9,0,1.5,0.7,1.5,1.7c0,0.1,0,0.3,0,0.4H634c0,0.8,0.5,1.3,1.2,1.3
			c0.4,0,0.6-0.1,0.9-0.3l0.2,0.4c-0.3,0.2-0.7,0.4-1.2,0.4C634.1,495.5,633.4,494.7,633.4,493.5z M635.9,493.2
			c0-0.7-0.3-1.1-0.9-1.1c-0.5,0-1,0.4-1,1.1H635.9z"/>
		<path class="st3" d="M637.4,491.7h0.5l0.1,0.5h0c0.3-0.3,0.7-0.6,1.1-0.6c0.6,0,0.9,0.3,1,0.7c0.4-0.4,0.8-0.7,1.2-0.7
			c0.7,0,1.1,0.5,1.1,1.4v2.3h-0.6v-2.2c0-0.7-0.2-1-0.7-1c-0.3,0-0.6,0.2-0.9,0.6v2.6h-0.6v-2.2c0-0.7-0.2-1-0.7-1
			c-0.3,0-0.6,0.2-0.9,0.6v2.6h-0.6L637.4,491.7L637.4,491.7z"/>
		<path class="st3" d="M644.2,495L644.2,495l-0.1,0.4h-0.5V490h0.6v1.5l0,0.7c0.3-0.3,0.7-0.5,1.1-0.5c0.9,0,1.4,0.7,1.4,1.9
			c0,1.2-0.7,2-1.6,2C644.9,495.5,644.5,495.3,644.2,495z M646.1,493.5c0-0.8-0.3-1.3-1-1.3c-0.3,0-0.6,0.2-1,0.5v1.9
			c0.3,0.3,0.6,0.4,0.9,0.4C645.7,494.9,646.1,494.4,646.1,493.5z"/>
		<path class="st3" d="M647.5,493.5c0-1.2,0.8-1.9,1.6-1.9c0.9,0,1.5,0.7,1.5,1.7c0,0.1,0,0.3,0,0.4h-2.5c0,0.8,0.5,1.3,1.2,1.3
			c0.4,0,0.6-0.1,0.9-0.3l0.2,0.4c-0.3,0.2-0.7,0.4-1.2,0.4C648.2,495.5,647.5,494.7,647.5,493.5z M650,493.2c0-0.7-0.3-1.1-0.9-1.1
			c-0.5,0-1,0.4-1,1.1H650z"/>
		<path class="st3" d="M651.5,491.7h0.5l0.1,0.7h0c0.3-0.5,0.6-0.8,1-0.8c0.2,0,0.3,0,0.4,0.1l-0.1,0.5c-0.1,0-0.2-0.1-0.4-0.1
			c-0.3,0-0.7,0.2-0.9,0.8v2.3h-0.6L651.5,491.7L651.5,491.7z"/>
		<path class="st3" d="M653.8,496.3c0.4-0.2,0.7-0.5,0.7-0.9l-0.1-0.6l0.3,0.5c-0.1,0.1-0.2,0.1-0.3,0.1c-0.2,0-0.4-0.2-0.4-0.4
			c0-0.3,0.2-0.4,0.5-0.4c0.3,0,0.5,0.3,0.5,0.7c0,0.6-0.4,1.2-1,1.4L653.8,496.3z"/>
		<path class="st3" d="M657.1,495c1.4-1.4,2.3-2.3,2.3-3.1c0-0.5-0.3-0.9-0.9-0.9c-0.4,0-0.7,0.3-1,0.6l-0.4-0.3
			c0.4-0.4,0.8-0.7,1.5-0.7c0.9,0,1.4,0.6,1.4,1.4c0,0.9-0.8,1.8-2,3c0.3,0,0.6,0,0.8,0h1.4v0.5h-3.1L657.1,495L657.1,495z"/>
		<path class="st3" d="M660.9,492.9c0-1.6,0.6-2.5,1.5-2.5s1.5,0.9,1.5,2.5c0,1.6-0.6,2.5-1.5,2.5S660.9,494.6,660.9,492.9z
			 M663.4,492.9c0-1.4-0.4-2-0.9-2s-0.9,0.6-0.9,2c0,1.4,0.4,2,0.9,2S663.4,494.4,663.4,492.9z"/>
		<path class="st3" d="M664.6,495c1.4-1.4,2.3-2.3,2.3-3.1c0-0.5-0.3-0.9-0.9-0.9c-0.4,0-0.7,0.3-1,0.6l-0.4-0.3
			c0.4-0.4,0.8-0.7,1.5-0.7c0.9,0,1.4,0.6,1.4,1.4c0,0.9-0.8,1.8-2,3c0.3,0,0.6,0,0.8,0h1.4v0.5h-3.1L664.6,495L664.6,495z"/>
		<path class="st3" d="M668.6,494.8h1.1v-3.5h-0.9v-0.4c0.4-0.1,0.8-0.2,1-0.4h0.5v4.3h1v0.5h-2.7L668.6,494.8L668.6,494.8z"/>
		<path class="st3" d="M673.3,491.7h0.6l0.7,2.1c0.1,0.4,0.2,0.7,0.3,1.1h0c0.1-0.3,0.2-0.7,0.3-1.1l0.7-2.1h0.6l-1.3,3.6h-0.7
			L673.3,491.7z"/>
		<path class="st3" d="M677.3,490.6c0-0.2,0.2-0.4,0.4-0.4c0.2,0,0.4,0.2,0.4,0.4c0,0.2-0.2,0.4-0.4,0.4
			C677.5,491,677.3,490.8,677.3,490.6z M677.4,491.7h0.6v3.6h-0.6V491.7z"/>
		<path class="st3" d="M679,494.4c0-0.8,0.7-1.2,2.2-1.4c0-0.5-0.2-0.9-0.8-0.9c-0.4,0-0.8,0.2-1.1,0.4l-0.2-0.4
			c0.3-0.2,0.8-0.5,1.4-0.5c0.9,0,1.3,0.6,1.3,1.5v2.2h-0.5l-0.1-0.4h0c-0.3,0.3-0.8,0.5-1.2,0.5C679.5,495.5,679,495.1,679,494.4z
			 M681.2,494.5v-1c-1.2,0.1-1.6,0.4-1.6,0.9c0,0.4,0.3,0.6,0.6,0.6C680.6,495,680.9,494.8,681.2,494.5z"/>
		<path class="st3" d="M684.3,492.9c0-1.6,1-2.6,2.3-2.6c0.7,0,1.1,0.3,1.4,0.6l-0.3,0.4c-0.2-0.3-0.6-0.5-1.1-0.5
			c-1,0-1.6,0.8-1.6,2c0,1.2,0.6,2,1.6,2c0.4,0,0.7-0.1,0.9-0.3v-1.3h-1v-0.5h1.6v2.1c-0.3,0.3-0.9,0.6-1.5,0.6
			C685.2,495.5,684.3,494.5,684.3,492.9z"/>
		<path class="st3" d="M688.9,493.5c0-1.2,0.8-1.9,1.7-1.9s1.7,0.7,1.7,1.9c0,1.2-0.8,1.9-1.7,1.9S688.9,494.7,688.9,493.5z
			 M691.6,493.5c0-0.8-0.4-1.4-1.1-1.4s-1.1,0.6-1.1,1.4c0,0.8,0.4,1.4,1.1,1.4S691.6,494.4,691.6,493.5z"/>
		<path class="st3" d="M692.9,493.5c0-1.2,0.8-1.9,1.7-1.9s1.7,0.7,1.7,1.9c0,1.2-0.8,1.9-1.7,1.9S692.9,494.7,692.9,493.5z
			 M695.7,493.5c0-0.8-0.4-1.4-1.1-1.4c-0.6,0-1.1,0.6-1.1,1.4c0,0.8,0.4,1.4,1.1,1.4S695.7,494.4,695.7,493.5z"/>
		<path class="st3" d="M697,496.1c0-0.3,0.2-0.6,0.5-0.8v0c-0.2-0.1-0.3-0.3-0.3-0.6c0-0.3,0.2-0.5,0.4-0.7v0
			c-0.2-0.2-0.5-0.5-0.5-1c0-0.8,0.6-1.3,1.4-1.3c0.2,0,0.4,0,0.5,0.1h1.3v0.5h-0.7c0.2,0.2,0.3,0.4,0.3,0.8c0,0.8-0.6,1.3-1.3,1.3
			c-0.2,0-0.4,0-0.5-0.1c-0.1,0.1-0.2,0.2-0.2,0.4c0,0.2,0.2,0.4,0.6,0.4h0.7c0.8,0,1.3,0.3,1.3,0.9c0,0.7-0.7,1.3-1.8,1.3
			C697.6,497,697,496.7,697,496.1z M699.8,495.9c0-0.3-0.3-0.5-0.7-0.5h-0.6c-0.1,0-0.3,0-0.5-0.1c-0.3,0.2-0.4,0.4-0.4,0.6
			c0,0.4,0.4,0.6,1.1,0.6C699.3,496.6,699.8,496.3,699.8,495.9z M699.3,492.9c0-0.5-0.3-0.9-0.8-0.9c-0.4,0-0.8,0.3-0.8,0.9
			c0,0.5,0.4,0.9,0.8,0.9C698.9,493.8,699.3,493.5,699.3,492.9z"/>
		<path class="st3" d="M701.1,494.6V490h0.6v4.7c0,0.2,0.1,0.3,0.2,0.3c0,0,0.1,0,0.1,0l0.1,0.5c-0.1,0-0.2,0.1-0.4,0.1
			C701.3,495.5,701.1,495.2,701.1,494.6z"/>
		<path class="st3" d="M702.7,493.5c0-1.2,0.8-1.9,1.6-1.9c0.9,0,1.5,0.7,1.5,1.7c0,0.1,0,0.3,0,0.4h-2.5c0,0.8,0.5,1.3,1.2,1.3
			c0.4,0,0.6-0.1,0.9-0.3l0.2,0.4c-0.3,0.2-0.7,0.4-1.2,0.4C703.5,495.5,702.7,494.7,702.7,493.5z M705.3,493.2
			c0-0.7-0.3-1.1-0.9-1.1c-0.5,0-1,0.4-1,1.1H705.3z"/>
		<path class="st3" d="M707.9,494.7l0.4-0.4c0.4,0.4,0.8,0.6,1.4,0.6c0.6,0,1-0.3,1-0.8c0-0.5-0.4-0.7-0.8-0.9l-0.7-0.3
			c-0.5-0.2-1-0.5-1-1.3c0-0.8,0.7-1.3,1.6-1.3c0.6,0,1.1,0.3,1.5,0.6l-0.3,0.4c-0.3-0.3-0.7-0.5-1.1-0.5c-0.6,0-0.9,0.3-0.9,0.7
			c0,0.5,0.4,0.7,0.8,0.8l0.7,0.3c0.6,0.2,1,0.6,1,1.3c0,0.8-0.6,1.4-1.7,1.4C708.9,495.5,708.3,495.2,707.9,494.7z"/>
		<path class="st3" d="M712.3,494.2v-2h-0.5v-0.5l0.6,0l0.1-1h0.5v1h1v0.5h-1v2c0,0.4,0.1,0.7,0.6,0.7c0.1,0,0.3,0,0.4-0.1l0.1,0.5
			c-0.2,0.1-0.4,0.1-0.7,0.1C712.6,495.5,712.3,495,712.3,494.2z"/>
		<path class="st3" d="M714.8,491.7h0.5l0.1,0.7h0c0.3-0.5,0.6-0.8,1-0.8c0.2,0,0.3,0,0.4,0.1l-0.1,0.5c-0.1,0-0.2-0.1-0.4-0.1
			c-0.3,0-0.7,0.2-0.9,0.8v2.3h-0.6L714.8,491.7L714.8,491.7z"/>
		<path class="st3" d="M717.1,493.5c0-1.2,0.8-1.9,1.6-1.9c0.9,0,1.5,0.7,1.5,1.7c0,0.1,0,0.3,0,0.4h-2.5c0,0.8,0.5,1.3,1.2,1.3
			c0.4,0,0.6-0.1,0.9-0.3l0.2,0.4c-0.3,0.2-0.7,0.4-1.2,0.4C717.9,495.5,717.1,494.7,717.1,493.5z M719.7,493.2
			c0-0.7-0.3-1.1-0.9-1.1c-0.5,0-1,0.4-1,1.1H719.7z"/>
		<path class="st3" d="M720.8,493.5c0-1.2,0.8-1.9,1.6-1.9c0.9,0,1.5,0.7,1.5,1.7c0,0.1,0,0.3,0,0.4h-2.5c0,0.8,0.5,1.3,1.2,1.3
			c0.4,0,0.6-0.1,0.9-0.3l0.2,0.4c-0.3,0.2-0.7,0.4-1.2,0.4C721.6,495.5,720.8,494.7,720.8,493.5z M723.4,493.2
			c0-0.7-0.3-1.1-0.9-1.1c-0.5,0-1,0.4-1,1.1H723.4z"/>
		<path class="st3" d="M724.9,494.2v-2h-0.5v-0.5l0.6,0l0.1-1h0.5v1h1v0.5h-1v2c0,0.4,0.1,0.7,0.6,0.7c0.1,0,0.3,0,0.4-0.1l0.1,0.5
			c-0.2,0.1-0.4,0.1-0.7,0.1C725.2,495.5,724.9,495,724.9,494.2z"/>
		<path class="st3" d="M726.7,490.4h0.7l0.8,2.7c0.2,0.6,0.3,1,0.5,1.6h0c0.2-0.6,0.3-1,0.5-1.6l0.8-2.7h0.6l-1.6,4.9h-0.7
			L726.7,490.4z"/>
		<path class="st3" d="M731.1,490.6c0-0.2,0.2-0.4,0.4-0.4s0.4,0.2,0.4,0.4c0,0.2-0.2,0.4-0.4,0.4S731.1,490.8,731.1,490.6z
			 M731.2,491.7h0.6v3.6h-0.6V491.7z"/>
		<path class="st3" d="M732.8,493.5c0-1.2,0.8-1.9,1.6-1.9c0.9,0,1.5,0.7,1.5,1.7c0,0.1,0,0.3,0,0.4h-2.5c0,0.8,0.5,1.3,1.2,1.3
			c0.4,0,0.6-0.1,0.9-0.3l0.2,0.4c-0.3,0.2-0.7,0.4-1.2,0.4C733.6,495.5,732.8,494.7,732.8,493.5z M735.4,493.2
			c0-0.7-0.3-1.1-0.9-1.1c-0.5,0-1,0.4-1,1.1H735.4z"/>
		<path class="st3" d="M736.4,491.7h0.6l0.5,2.1c0.1,0.3,0.1,0.7,0.2,1h0c0.1-0.3,0.2-0.7,0.2-1l0.6-2.1h0.6l0.6,2.1
			c0.1,0.3,0.2,0.7,0.3,1h0c0.1-0.3,0.1-0.7,0.2-1l0.5-2.1h0.6l-1,3.6h-0.8l-0.5-2c-0.1-0.3-0.2-0.7-0.2-1.1h0
			c-0.1,0.4-0.2,0.7-0.3,1.1l-0.5,2h-0.7L736.4,491.7z"/>
	</g>
</g>
<path class="st4" d="M484.5,341.9c21.1,0.7,42.2,1.5,63.3,2.2"/>
<path class="st4" d="M348.1,314.6c0.6,0,1-0.6,0.9-1.2c-17.2,6.3-29.9,23.5-30.7,41.8"/>
<rect x="92.4" y="158.8" class="st5" width="83.2" height="15.9"/>
<text transform="matrix(1 0 0 1 92.415 167.3042)" class="st2 st6 st7">84th Precinct</text>
</svg>
