<?xml version="1.0" encoding="utf-8"?>
<!-- Generator: Adobe Illustrator 27.4.1, SVG Export Plug-In . SVG Version: 6.00 Build 0)  -->
<svg version="1.2" baseProfile="tiny" id="g-1939-sanborn-Artboard_3-interaction-img" xmlns="http://www.w3.org/2000/svg" xmlns:xlink="http://www.w3.org/1999/xlink"
	 x="0px" y="0px" viewBox="0 0 350 500" overflow="visible" xml:space="preserve">
<g>
	<g id="_x31_939-shape_00000122686668397755817180000006208591936781611442_">
		<g id="demolition-site_00000133524209450752086880000011716324813323646357_">
			<polygon fill="#DA4464" fill-opacity="0.5" stroke="#C2323F" stroke-miterlimit="10" points="1129.471,225.032 1136.548,218.619 
				1136.548,225.032 			"/>
			
				<polygon id="centre-1_00000107568279572632432680000010349744661447105669_" fill="#DA4464" fill-opacity="0.5" stroke="#C2323F" stroke-miterlimit="10" points="
				1057.597,306.416 1038.799,324.772 1038.799,315.594 1057.597,296.686 			"/>
			
				<polygon id="henry-2_00000128443085210753249590000000370607133112656830_" fill="#DA4464" fill-opacity="0.5" stroke="#C2323F" stroke-miterlimit="10" points="
				1169.057,185.225 1169.057,202.033 1182.105,188.1 1189.182,187.658 1190.288,176.821 1178.788,176.821 			"/>
			
				<polygon id="garnet-2_00000181053069387712283450000017898654321728412585_" fill="#DA4464" fill-opacity="0.5" stroke="#C2323F" stroke-miterlimit="10" points="
				1085.462,269.705 1085.462,286.955 1069.76,285.849 			"/>
			
				<polygon id="clinton-1_00000079481757734920800430000003594160056707899050_" fill="#DA4464" fill-opacity="0.5" stroke="#C2323F" stroke-miterlimit="10" points="
				1134.115,233.436 1117.971,249.138 1117.971,238.523 1123.279,232.33 			"/>
			
				<rect x="1273.091" y="110.212" fill="#DA4464" fill-opacity="0.5" stroke="#C2323F" stroke-miterlimit="10" width="16.92" height="13.189"/>
			<polygon fill="#DA4464" fill-opacity="0.5" stroke="#C2323F" stroke-miterlimit="10" points="1215.156,140.406 1215.156,151.685 
				1212.502,151.685 1202.108,163.627 1202.108,169.598 1196.136,169.598 1196.136,159.254 			"/>
			<polygon fill="#DA4464" fill-opacity="0.5" stroke="#C2323F" stroke-miterlimit="10" points="1263.169,46.948 1255.865,43.973 
				1254.782,48.301 1239.363,69.131 1273.448,70.213 1277.777,66.967 1282.105,54.523 			"/>
			<polygon fill="#DA4464" fill-opacity="0.5" stroke="#C2323F" stroke-miterlimit="10" points="1197.021,128.556 1197.021,144.577 
				1214.271,128.556 			"/>
			<polygon fill="#DA4464" fill-opacity="0.5" stroke="#C2323F" stroke-miterlimit="10" points="1265.256,40.456 1283.999,48.03 
				1301.384,2.583 1297.393,0.96 1292.926,11.51 			"/>
			<polygon fill="#DA4464" fill-opacity="0.5" stroke="#C2323F" stroke-miterlimit="10" points="1233.189,121.387 1265.256,121.387 
				1265.256,111.436 1253.756,110.33 1251.766,107.897 1251.987,105.907 1260.391,94.628 			"/>
			<polygon fill="#DA4464" fill-opacity="0.5" stroke="#C2323F" stroke-miterlimit="10" points="1305.37,5.559 1324.576,12.592 
				1321.871,19.085 1293.196,48.03 			"/>
			<polygon fill="#DA4464" fill-opacity="0.5" stroke="#C2323F" stroke-miterlimit="10" points="1301.384,112.633 1318.467,112.633 
				1318.467,123.401 1300.009,123.401 			"/>
			
				<polygon id="henry-1_00000124156126639338241320000016503842928673555368_" fill="#DA4464" fill-opacity="0.5" stroke="#C2323F" stroke-miterlimit="10" points="
				1190.288,140.406 1171.463,169.598 1190.288,152.328 			"/>
			
				<rect x="1326.146" y="114.786" fill="#DA4464" fill-opacity="0.5" stroke="#C2323F" stroke-miterlimit="10" width="19.521" height="8.615"/>
			
				<rect x="1353.476" y="114.786" fill="#DA4464" fill-opacity="0.5" stroke="#C2323F" stroke-miterlimit="10" width="19.062" height="8.615"/>
			
				<rect x="1379.888" y="113.637" fill="#DA4464" fill-opacity="0.5" stroke="#C2323F" stroke-miterlimit="10" width="19.521" height="9.763"/>
			
				<rect x="1406.529" y="113.637" fill="#DA4464" fill-opacity="0.5" stroke="#C2323F" stroke-miterlimit="10" width="19.062" height="9.763"/>
			<polygon fill="#DA4464" fill-opacity="0.5" stroke="#C2323F" stroke-miterlimit="10" points="1432.711,113.637 1452.462,112.633 
				1452.462,122.365 1432.711,122.365 			"/>
			<polygon fill="#DA4464" fill-opacity="0.5" stroke="#C2323F" stroke-miterlimit="10" points="1459.581,112.633 1459.581,122.365 
				1532.156,123.401 1532.156,111.341 			"/>
			<polygon fill="#DA4464" fill-opacity="0.5" stroke="#C2323F" stroke-miterlimit="10" points="1539.275,111.341 1539.275,122.365 
				1558.797,122.365 1559.945,111.341 			"/>
			<polygon fill="#DA4464" fill-opacity="0.5" stroke="#C2323F" stroke-miterlimit="10" points="1566.146,111.341 1564.998,122.365 
				1584.519,122.365 1586.356,111.341 			"/>
			<polygon fill="#DA4464" fill-opacity="0.5" stroke="#C2323F" stroke-miterlimit="10" points="1592.328,111.341 1591.409,122.365 
				1612.768,122.365 1612.768,111.341 			"/>
			
				<rect x="1619.198" y="112.489" fill="#DA4464" fill-opacity="0.5" stroke="#C2323F" stroke-miterlimit="10" width="20.44" height="8.727"/>
		</g>
		<g id="_x31_939-arrow_00000034804595739810576130000005627847401922843054_">
			
				
			<g>
				<path fill="none" stroke="#CE3467" stroke-width="2" stroke-miterlimit="10" d="M1170.678,156.843
					c-7.091,2.521-19.621,5.138-32.078-1.382c-13.964-7.31-22.608-23.367-22.731-41.885"/>
				<g>
					<path fill="#CE3467" d="M1176.222,154.456c-3.027,0.119-6.97-0.187-9.719-1.106l3.416,3.73l0.239,5.051
						C1171.443,159.533,1174.005,156.519,1176.222,154.456z"/>
				</g>
			</g>
		</g>
		<g id="_x31_939-annotation-mobile_00000156555096419086071990000016342007768796453784_">
			<g id="demolition-site_00000062892019553579726710000011300782273098256298_">
				<polygon fill="#DA4464" fill-opacity="0.5" stroke="#C2323F" stroke-miterlimit="10" points="91.756,299.423 93.676,293.891 
					95.563,297.341 				"/>
				<polygon fill="#DA4464" fill-opacity="0.5" stroke="#C2323F" stroke-miterlimit="10" points="103.316,189.387 102.049,199.033 
					110.674,214.803 121.358,180.036 				"/>
				<polygon fill="#DA4464" fill-opacity="0.5" stroke="#C2323F" stroke-miterlimit="10" points="95.174,288.435 98.492,294.502 
					103.55,278.599 99.841,271.818 				"/>
				<polygon fill="#DA4464" fill-opacity="0.5" stroke="#C2323F" stroke-miterlimit="10" points="77.035,364.351 72.323,379.756 
					69.623,374.819 74.172,359.116 				"/>
				<polygon fill="#DA4464" fill-opacity="0.5" stroke="#C2323F" stroke-miterlimit="10" points="101.34,266.361 106.285,275.403 
					109.205,264.069 112.882,261.749 110.289,255.594 104.102,258.977 				"/>
				<polygon fill="#DA4464" fill-opacity="0.5" stroke="#C2323F" stroke-miterlimit="10" points="68.157,380.334 71.866,387.116 
					65.441,390.629 				"/>
				<polygon fill="#DA4464" fill-opacity="0.5" stroke="#C2323F" stroke-miterlimit="10" points="69.557,393.633 66.085,404.805 
					58.837,407.378 63.014,397.212 				"/>
				<polygon fill="#DA4464" fill-opacity="0.5" stroke="#C2323F" stroke-miterlimit="10" points="81.224,336.403 86.299,345.683 
					77.527,349.708 				"/>
				<polygon fill="#DA4464" fill-opacity="0.5" stroke="#C2323F" stroke-miterlimit="10" points="96.727,302.577 92.662,315.774 
					89.539,310.064 90.572,305.171 				"/>
				<polygon fill="#DA4464" fill-opacity="0.5" stroke="#C2323F" stroke-miterlimit="10" points="90.903,320.754 86.137,336.344 
					82.81,331.672 88.04,315.52 				"/>
				
					<rect x="136.54" y="192.414" transform="matrix(0.8774 -0.4798 0.4798 0.8774 -76.8855 92.0994)" fill="#DA4464" fill-opacity="0.5" stroke="#C2323F" stroke-miterlimit="10" width="10.375" height="8.087"/>
				<polygon fill="#DA4464" fill-opacity="0.5" stroke="#C2323F" stroke-miterlimit="10" points="112.953,228.688 116.271,234.755 
					114.843,235.536 112.765,245.019 114.522,248.231 111.31,249.988 108.266,244.423 				"/>
				<polygon fill="#DA4464" fill-opacity="0.5" stroke="#C2323F" stroke-miterlimit="10" points="111.285,164.285 106.48,164.833 
					107.171,167.48 105.005,183.222 123.66,173.776 125.033,170.756 123.7,162.788 				"/>
				<polygon fill="#DA4464" fill-opacity="0.5" stroke="#C2323F" stroke-miterlimit="10" points="99.71,227.648 104.424,236.267 
					108.99,222.573 				"/>
				<polygon fill="#DA4464" fill-opacity="0.5" stroke="#C2323F" stroke-miterlimit="10" points="110.498,160.178 122.809,158.738 
					118.791,129.174 116.166,129.475 116.867,136.465 				"/>
				<polygon fill="#DA4464" fill-opacity="0.5" stroke="#C2323F" stroke-miterlimit="10" points="117.058,213.15 134.309,203.716 
					131.381,198.362 124.869,201.151 123.083,200.428 122.616,199.292 123.819,190.752 				"/>
				<polygon fill="#DA4464" fill-opacity="0.5" stroke="#C2323F" stroke-miterlimit="10" points="121.81,129.602 134.212,127.735 
					134.667,132.024 127.757,156.032 				"/>
				<polygon fill="#DA4464" fill-opacity="0.5" stroke="#C2323F" stroke-miterlimit="10" points="100.781,206.432 98.987,223.034 
					107.357,218.456 				"/>
				<polygon fill="#DA4464" fill-opacity="0.5" stroke="#C2323F" stroke-miterlimit="10" points="151.169,188.377 160.359,183.351 
					163.527,189.143 153.597,194.574 				"/>
				<polygon fill="#DA4464" fill-opacity="0.5" stroke="#C2323F" stroke-miterlimit="10" points="99.575,236.004 98.036,257.247 
					103.082,242.418 				"/>
				
					<rect x="165.657" y="179.054" transform="matrix(0.8774 -0.4798 0.4798 0.8774 -66.1332 104.643)" fill="#DA4464" fill-opacity="0.5" stroke="#C2323F" stroke-miterlimit="10" width="11.97" height="5.282"/>
				
					<rect x="180.376" y="171.08" transform="matrix(0.8774 -0.4798 0.4798 0.8774 -60.5194 110.6606)" fill="#DA4464" fill-opacity="0.5" stroke="#C2323F" stroke-miterlimit="10" width="11.688" height="5.282"/>
				
					<rect x="194.399" y="162.581" transform="matrix(0.8774 -0.4798 0.4798 0.8774 -54.8731 116.4573)" fill="#DA4464" fill-opacity="0.5" stroke="#C2323F" stroke-miterlimit="10" width="11.97" height="5.986"/>
				
					<rect x="208.748" y="154.811" transform="matrix(0.8774 -0.4798 0.4798 0.8774 -49.402 122.322)" fill="#DA4464" fill-opacity="0.5" stroke="#C2323F" stroke-miterlimit="10" width="11.688" height="5.986"/>
				<polygon fill="#DA4464" fill-opacity="0.5" stroke="#C2323F" stroke-miterlimit="10" points="222.113,150.279 232.443,143.927 
					235.306,149.163 224.681,154.974 				"/>
				<polygon fill="#DA4464" fill-opacity="0.5" stroke="#C2323F" stroke-miterlimit="10" points="236.273,141.833 239.136,147.068 
					278.483,126.273 274.935,119.785 				"/>
				<polygon fill="#DA4464" fill-opacity="0.5" stroke="#C2323F" stroke-miterlimit="10" points="278.765,117.69 282.008,123.621 
					292.51,117.877 289.884,111.609 				"/>
				<polygon fill="#DA4464" fill-opacity="0.5" stroke="#C2323F" stroke-miterlimit="10" points="293.22,109.784 295.846,116.053 
					306.348,110.309 304.093,103.838 				"/>
				<polygon fill="#DA4464" fill-opacity="0.5" stroke="#C2323F" stroke-miterlimit="10" points="307.305,102.081 310.054,108.282 
					321.544,101.998 318.301,96.068 				"/>
				
					<rect x="322.614" y="91.458" transform="matrix(0.8774 -0.4798 0.4798 0.8774 -4.8344 169.353)" fill="#DA4464" fill-opacity="0.5" stroke="#C2323F" stroke-miterlimit="10" width="12.533" height="5.351"/>
			</g>
			<g id="_x31_939-arrow_00000173155278475389600960000006889794700251569029_">
				
					
				<g>
					<path fill="none" stroke="#CE3467" stroke-width="2" stroke-miterlimit="10" d="M111.955,294.308
						c4.902,1.754,12.369,3.118,19.951-0.505c9.6-4.587,15.791-15.452,16.273-28.333"/>
					<g>
						<path fill="#CE3467" d="M106.488,291.757c2.152,2.132,4.619,5.224,5.822,7.86l0.396-5.042l3.53-3.621
							C113.46,291.788,109.509,291.971,106.488,291.757z"/>
					</g>
				</g>
			</g>
		</g>
		<g id="_x31_939-text_00000088126273124494890400000014027139120177695616_">
			<g>
				
					
				<g>
					<g>
						<path fill="none" stroke="#C2B585" d="M1065.548,78.589h2.815c3.235,0,5.146,1.744,5.146,5.237
							c0,3.493-1.911,5.321-5.05,5.321h-2.912V78.589z M1068.241,87.63c2.125,0,3.345-1.208,3.345-3.803
							c0-2.596-1.22-3.72-3.345-3.72h-0.82v7.523H1068.241z"/>
						<path fill="none" stroke="#C2B585" d="M1075.928,78.589h6.354v1.576h-4.481v2.706h3.797v1.576h-3.797v3.125h4.643v1.576
							h-6.516V78.589z"/>
						<path fill="none" stroke="#C2B585" d="M1084.903,78.589h2.118l1.866,5.16c0.232,0.671,0.445,1.382,0.678,2.073h0.065
							c0.232-0.691,0.433-1.401,0.665-2.073l1.827-5.16h2.118v10.558h-1.718v-4.83c0-0.975,0.148-2.38,0.239-3.358h-0.065
							l-0.852,2.454l-1.737,4.743h-1.111l-1.743-4.743l-0.84-2.454h-0.064c0.09,0.978,0.239,2.383,0.239,3.358v4.83h-1.686V78.589z"
							/>
						<path fill="none" stroke="#C2B585" d="M1096.663,83.827c0-3.416,1.905-5.431,4.656-5.431s4.656,2.024,4.656,5.431
							c0,3.416-1.905,5.515-4.656,5.515S1096.663,87.243,1096.663,83.827z M1104.051,83.827c0-2.37-1.072-3.804-2.731-3.804
							s-2.731,1.434-2.731,3.804c0,2.37,1.072,3.887,2.731,3.887S1104.051,86.196,1104.051,83.827z"/>
						<path fill="none" stroke="#C2B585" d="M1108.39,78.589h1.873v8.982h4.385v1.576h-6.257V78.589z"/>
						<path fill="none" stroke="#C2B585" d="M1116.784,78.589h1.873v10.558h-1.873V78.589z"/>
						<path fill="none" stroke="#C2B585" d="M1120.903,87.794l1.091-1.285c0.755,0.72,1.769,1.204,2.75,1.204
							c1.188,0,1.841-0.539,1.841-1.362c0-0.869-0.682-1.146-1.641-1.553l-1.443-0.626c-1.04-0.433-2.134-1.256-2.134-2.799
							c0-1.682,1.485-2.977,3.545-2.977c1.233,0,2.428,0.51,3.255,1.347l-0.962,1.188c-0.671-0.571-1.388-0.907-2.292-0.907
							c-1.001,0-1.653,0.468-1.653,1.24c0,0.83,0.804,1.137,1.679,1.495l1.424,0.597c1.256,0.523,2.134,1.317,2.134,2.848
							c0,1.711-1.42,3.139-3.791,3.139C1123.279,89.341,1121.904,88.779,1120.903,87.794z"/>
						<path fill="none" stroke="#C2B585" d="M1130.715,78.589h1.873v4.243h4.269v-4.243h1.873v10.558h-1.873v-4.682h-4.269v4.682
							h-1.873V78.589z"/>
						<path fill="none" stroke="#C2B585" d="M1141.707,78.589h6.354v1.576h-4.481v2.706h3.797v1.576h-3.797v3.125h4.643v1.576
							h-6.516V78.589z"/>
						<path fill="none" stroke="#C2B585" d="M1150.682,78.589h2.815c3.235,0,5.146,1.744,5.146,5.237
							c0,3.493-1.911,5.321-5.05,5.321h-2.912V78.589z M1153.375,87.63c2.125,0,3.345-1.208,3.345-3.803
							c0-2.596-1.22-3.72-3.345-3.72h-0.82v7.523H1153.375z"/>
						<path fill="none" stroke="#C2B585" d="M1095.145,95.312h1.873v8.982h4.385v1.576h-6.257V95.312z"/>
						<path fill="none" stroke="#C2B585" d="M1102.483,100.55c0-3.416,1.905-5.431,4.656-5.431s4.656,2.024,4.656,5.431
							c0,3.416-1.905,5.515-4.656,5.515S1102.483,103.966,1102.483,100.55z M1109.87,100.55c0-2.37-1.072-3.804-2.731-3.804
							s-2.731,1.434-2.731,3.804c0,2.37,1.072,3.887,2.731,3.887S1109.87,102.919,1109.87,100.55z"/>
						<path fill="none" stroke="#C2B585" d="M1115.92,96.888h-3.048v-1.576h7.968v1.576h-3.048v8.982h-1.873V96.888z"/>
						<path fill="none" stroke="#C2B585" d="M1121.654,104.518l1.091-1.285c0.755,0.72,1.769,1.204,2.75,1.204
							c1.188,0,1.841-0.539,1.841-1.362c0-0.869-0.682-1.146-1.641-1.553l-1.443-0.626c-1.04-0.433-2.134-1.256-2.134-2.799
							c0-1.682,1.485-2.977,3.545-2.977c1.233,0,2.428,0.51,3.255,1.347l-0.962,1.188c-0.671-0.571-1.388-0.907-2.292-0.907
							c-1.001,0-1.653,0.468-1.653,1.24c0,0.83,0.804,1.137,1.679,1.495l1.424,0.597c1.256,0.523,2.134,1.317,2.134,2.848
							c0,1.711-1.42,3.139-3.791,3.139C1124.03,106.064,1122.655,105.502,1121.654,104.518z"/>
					</g>
					<g>
						<path fill="#CE3467" d="M1065.548,78.589h2.815c3.235,0,5.146,1.744,5.146,5.237c0,3.493-1.911,5.321-5.05,5.321h-2.912
							V78.589z M1068.241,87.63c2.125,0,3.345-1.208,3.345-3.803c0-2.596-1.22-3.72-3.345-3.72h-0.82v7.523H1068.241z"/>
						<path fill="#CE3467" d="M1075.928,78.589h6.354v1.576h-4.481v2.706h3.797v1.576h-3.797v3.125h4.643v1.576h-6.516V78.589z"/>
						<path fill="#CE3467" d="M1084.903,78.589h2.118l1.866,5.16c0.232,0.671,0.445,1.382,0.678,2.073h0.065
							c0.232-0.691,0.433-1.401,0.665-2.073l1.827-5.16h2.118v10.558h-1.718v-4.83c0-0.975,0.148-2.38,0.239-3.358h-0.065
							l-0.852,2.454l-1.737,4.743h-1.111l-1.743-4.743l-0.84-2.454h-0.064c0.09,0.978,0.239,2.383,0.239,3.358v4.83h-1.686V78.589z"
							/>
						<path fill="#CE3467" d="M1096.663,83.827c0-3.416,1.905-5.431,4.656-5.431s4.656,2.024,4.656,5.431
							c0,3.416-1.905,5.515-4.656,5.515S1096.663,87.243,1096.663,83.827z M1104.051,83.827c0-2.37-1.072-3.804-2.731-3.804
							s-2.731,1.434-2.731,3.804c0,2.37,1.072,3.887,2.731,3.887S1104.051,86.196,1104.051,83.827z"/>
						<path fill="#CE3467" d="M1108.39,78.589h1.873v8.982h4.385v1.576h-6.257V78.589z"/>
						<path fill="#CE3467" d="M1116.784,78.589h1.873v10.558h-1.873V78.589z"/>
						<path fill="#CE3467" d="M1120.903,87.794l1.091-1.285c0.755,0.72,1.769,1.204,2.75,1.204c1.188,0,1.841-0.539,1.841-1.362
							c0-0.869-0.682-1.146-1.641-1.553l-1.443-0.626c-1.04-0.433-2.134-1.256-2.134-2.799c0-1.682,1.485-2.977,3.545-2.977
							c1.233,0,2.428,0.51,3.255,1.347l-0.962,1.188c-0.671-0.571-1.388-0.907-2.292-0.907c-1.001,0-1.653,0.468-1.653,1.24
							c0,0.83,0.804,1.137,1.679,1.495l1.424,0.597c1.256,0.523,2.134,1.317,2.134,2.848c0,1.711-1.42,3.139-3.791,3.139
							C1123.279,89.341,1121.904,88.779,1120.903,87.794z"/>
						<path fill="#CE3467" d="M1130.715,78.589h1.873v4.243h4.269v-4.243h1.873v10.558h-1.873v-4.682h-4.269v4.682h-1.873V78.589z"
							/>
						<path fill="#CE3467" d="M1141.707,78.589h6.354v1.576h-4.481v2.706h3.797v1.576h-3.797v3.125h4.643v1.576h-6.516V78.589z"/>
						<path fill="#CE3467" d="M1150.682,78.589h2.815c3.235,0,5.146,1.744,5.146,5.237c0,3.493-1.911,5.321-5.05,5.321h-2.912
							V78.589z M1153.375,87.63c2.125,0,3.345-1.208,3.345-3.803c0-2.596-1.22-3.72-3.345-3.72h-0.82v7.523H1153.375z"/>
						<path fill="#CE3467" d="M1095.145,95.312h1.873v8.982h4.385v1.576h-6.257V95.312z"/>
						<path fill="#CE3467" d="M1102.483,100.55c0-3.416,1.905-5.431,4.656-5.431s4.656,2.024,4.656,5.431
							c0,3.416-1.905,5.515-4.656,5.515S1102.483,103.966,1102.483,100.55z M1109.87,100.55c0-2.37-1.072-3.804-2.731-3.804
							s-2.731,1.434-2.731,3.804c0,2.37,1.072,3.887,2.731,3.887S1109.87,102.919,1109.87,100.55z"/>
						<path fill="#CE3467" d="M1115.92,96.888h-3.048v-1.576h7.968v1.576h-3.048v8.982h-1.873V96.888z"/>
						<path fill="#CE3467" d="M1121.654,104.518l1.091-1.285c0.755,0.72,1.769,1.204,2.75,1.204c1.188,0,1.841-0.539,1.841-1.362
							c0-0.869-0.682-1.146-1.641-1.553l-1.443-0.626c-1.04-0.433-2.134-1.256-2.134-2.799c0-1.682,1.485-2.977,3.545-2.977
							c1.233,0,2.428,0.51,3.255,1.347l-0.962,1.188c-0.671-0.571-1.388-0.907-2.292-0.907c-1.001,0-1.653,0.468-1.653,1.24
							c0,0.83,0.804,1.137,1.679,1.495l1.424,0.597c1.256,0.523,2.134,1.317,2.134,2.848c0,1.711-1.42,3.139-3.791,3.139
							C1124.03,106.064,1122.655,105.502,1121.654,104.518z"/>
					</g>
				</g>
			</g>
			<g>
				
					
				<g>
					<g>
						<path fill="none" stroke="#C2B585" d="M123.48,245.283h1.918c2.205,0,3.507,1.188,3.507,3.569c0,2.38-1.303,3.626-3.441,3.626
							h-1.984V245.283z M125.315,251.444c1.448,0,2.279-0.823,2.279-2.592c0-1.77-0.832-2.535-2.279-2.535h-0.559v5.127H125.315z"/>
						<path fill="none" stroke="#C2B585" d="M130.553,245.283h4.33v1.074h-3.054v1.844h2.588v1.073h-2.588v2.13h3.164v1.074h-4.44
							V245.283z"/>
						<path fill="none" stroke="#C2B585" d="M136.669,245.283h1.443l1.271,3.517c0.159,0.457,0.304,0.941,0.462,1.412h0.044
							c0.158-0.471,0.295-0.955,0.453-1.412l1.246-3.517h1.443v7.195h-1.171v-3.292c0-0.664,0.102-1.621,0.163-2.288h-0.044
							l-0.581,1.672l-1.184,3.232h-0.757l-1.188-3.232l-0.572-1.672h-0.044c0.062,0.667,0.163,1.624,0.163,2.288v3.292h-1.148
							V245.283z"/>
						<path fill="none" stroke="#C2B585" d="M144.683,248.852c0-2.328,1.298-3.701,3.173-3.701c1.875,0,3.173,1.38,3.173,3.701
							c0,2.327-1.298,3.758-3.173,3.758C145.981,252.61,144.683,251.179,144.683,248.852z M149.718,248.852
							c0-1.615-0.73-2.593-1.861-2.593c-1.131,0-1.862,0.978-1.862,2.593c0,1.614,0.73,2.648,1.862,2.648
							C148.987,251.5,149.718,250.466,149.718,248.852z"/>
						<path fill="none" stroke="#C2B585" d="M152.674,245.283h1.276v6.121h2.988v1.074h-4.264V245.283z"/>
						<path fill="none" stroke="#C2B585" d="M158.394,245.283h1.276v7.195h-1.276V245.283z"/>
						<path fill="none" stroke="#C2B585" d="M161.201,251.556l0.744-0.876c0.515,0.49,1.206,0.82,1.875,0.82
							c0.81,0,1.254-0.367,1.254-0.928c0-0.593-0.464-0.781-1.118-1.059l-0.983-0.427c-0.708-0.295-1.455-0.856-1.455-1.908
							c0-1.146,1.012-2.028,2.416-2.028c0.84,0,1.655,0.348,2.218,0.917l-0.656,0.811c-0.458-0.39-0.946-0.619-1.562-0.619
							c-0.682,0-1.126,0.319-1.126,0.846c0,0.565,0.548,0.774,1.144,1.019l0.97,0.407c0.856,0.356,1.455,0.897,1.455,1.94
							c0,1.166-0.968,2.139-2.583,2.139C162.82,252.61,161.883,252.227,161.201,251.556z"/>
						<path fill="none" stroke="#C2B585" d="M167.887,245.283h1.276v2.892h2.909v-2.892h1.276v7.195h-1.276v-3.19h-2.909v3.19
							h-1.276V245.283z"/>
						<path fill="none" stroke="#C2B585" d="M175.378,245.283h4.33v1.074h-3.054v1.844h2.588v1.073h-2.588v2.13h3.164v1.074h-4.44
							V245.283z"/>
						<path fill="none" stroke="#C2B585" d="M181.494,245.283h1.918c2.205,0,3.507,1.188,3.507,3.569
							c0,2.38-1.303,3.626-3.441,3.626h-1.984V245.283z M183.329,251.444c1.448,0,2.279-0.823,2.279-2.592
							c0-1.77-0.832-2.535-2.279-2.535h-0.559v5.127H183.329z"/>
						<path fill="none" stroke="#C2B585" d="M143.648,255.537h1.276v6.121h2.988v1.074h-4.264V255.537z"/>
						<path fill="none" stroke="#C2B585" d="M148.649,259.106c0-2.328,1.298-3.701,3.173-3.701c1.875,0,3.173,1.38,3.173,3.701
							c0,2.327-1.298,3.758-3.173,3.758C149.947,262.864,148.649,261.433,148.649,259.106z M153.683,259.106
							c0-1.615-0.73-2.593-1.861-2.593c-1.131,0-1.862,0.978-1.862,2.593c0,1.614,0.73,2.648,1.862,2.648
							C152.953,261.754,153.683,260.72,153.683,259.106z"/>
						<path fill="none" stroke="#C2B585" d="M157.805,256.611h-2.077v-1.074h5.43v1.074h-2.077v6.121h-1.276V256.611z"/>
						<path fill="none" stroke="#C2B585" d="M161.712,261.81l0.744-0.876c0.515,0.49,1.206,0.82,1.875,0.82
							c0.81,0,1.254-0.367,1.254-0.928c0-0.593-0.464-0.781-1.118-1.059l-0.983-0.427c-0.708-0.295-1.455-0.856-1.455-1.908
							c0-1.146,1.012-2.028,2.416-2.028c0.84,0,1.655,0.348,2.218,0.917l-0.656,0.811c-0.458-0.39-0.946-0.619-1.562-0.619
							c-0.682,0-1.126,0.319-1.126,0.846c0,0.565,0.548,0.774,1.144,1.019l0.97,0.407c0.856,0.356,1.455,0.897,1.455,1.94
							c0,1.166-0.968,2.139-2.583,2.139C163.332,262.864,162.394,262.481,161.712,261.81z"/>
					</g>
					<g>
						<path fill="#CE3467" d="M123.48,245.283h1.918c2.205,0,3.507,1.188,3.507,3.569c0,2.38-1.303,3.626-3.441,3.626h-1.984
							V245.283z M125.315,251.444c1.448,0,2.279-0.823,2.279-2.592c0-1.77-0.832-2.535-2.279-2.535h-0.559v5.127H125.315z"/>
						<path fill="#CE3467" d="M130.553,245.283h4.33v1.074h-3.054v1.844h2.588v1.073h-2.588v2.13h3.164v1.074h-4.44V245.283z"/>
						<path fill="#CE3467" d="M136.669,245.283h1.443l1.271,3.517c0.159,0.457,0.304,0.941,0.462,1.412h0.044
							c0.158-0.471,0.295-0.955,0.453-1.412l1.246-3.517h1.443v7.195h-1.171v-3.292c0-0.664,0.102-1.621,0.163-2.288h-0.044
							l-0.581,1.672l-1.184,3.232h-0.757l-1.188-3.232l-0.572-1.672h-0.044c0.062,0.667,0.163,1.624,0.163,2.288v3.292h-1.148
							V245.283z"/>
						<path fill="#CE3467" d="M144.683,248.852c0-2.328,1.298-3.701,3.173-3.701c1.875,0,3.173,1.38,3.173,3.701
							c0,2.327-1.298,3.758-3.173,3.758C145.981,252.61,144.683,251.179,144.683,248.852z M149.718,248.852
							c0-1.615-0.73-2.593-1.861-2.593c-1.131,0-1.862,0.978-1.862,2.593c0,1.614,0.73,2.648,1.862,2.648
							C148.987,251.5,149.718,250.466,149.718,248.852z"/>
						<path fill="#CE3467" d="M152.674,245.283h1.276v6.121h2.988v1.074h-4.264V245.283z"/>
						<path fill="#CE3467" d="M158.394,245.283h1.276v7.195h-1.276V245.283z"/>
						<path fill="#CE3467" d="M161.201,251.556l0.744-0.876c0.515,0.49,1.206,0.82,1.875,0.82c0.81,0,1.254-0.367,1.254-0.928
							c0-0.593-0.464-0.781-1.118-1.059l-0.983-0.427c-0.708-0.295-1.455-0.856-1.455-1.908c0-1.146,1.012-2.028,2.416-2.028
							c0.84,0,1.655,0.348,2.218,0.917l-0.656,0.811c-0.458-0.39-0.946-0.619-1.562-0.619c-0.682,0-1.126,0.319-1.126,0.846
							c0,0.565,0.548,0.774,1.144,1.019l0.97,0.407c0.856,0.356,1.455,0.897,1.455,1.94c0,1.166-0.968,2.139-2.583,2.139
							C162.82,252.61,161.883,252.227,161.201,251.556z"/>
						<path fill="#CE3467" d="M167.887,245.283h1.276v2.892h2.909v-2.892h1.276v7.195h-1.276v-3.19h-2.909v3.19h-1.276V245.283z"/>
						<path fill="#CE3467" d="M175.378,245.283h4.33v1.074h-3.054v1.844h2.588v1.073h-2.588v2.13h3.164v1.074h-4.44V245.283z"/>
						<path fill="#CE3467" d="M181.494,245.283h1.918c2.205,0,3.507,1.188,3.507,3.569c0,2.38-1.303,3.626-3.441,3.626h-1.984
							V245.283z M183.329,251.444c1.448,0,2.279-0.823,2.279-2.592c0-1.77-0.832-2.535-2.279-2.535h-0.559v5.127H183.329z"/>
						<path fill="#CE3467" d="M143.648,255.537h1.276v6.121h2.988v1.074h-4.264V255.537z"/>
						<path fill="#CE3467" d="M148.649,259.106c0-2.328,1.298-3.701,3.173-3.701c1.875,0,3.173,1.38,3.173,3.701
							c0,2.327-1.298,3.758-3.173,3.758C149.947,262.864,148.649,261.433,148.649,259.106z M153.683,259.106
							c0-1.615-0.73-2.593-1.861-2.593c-1.131,0-1.862,0.978-1.862,2.593c0,1.614,0.73,2.648,1.862,2.648
							C152.953,261.754,153.683,260.72,153.683,259.106z"/>
						<path fill="#CE3467" d="M157.805,256.611h-2.077v-1.074h5.43v1.074h-2.077v6.121h-1.276V256.611z"/>
						<path fill="#CE3467" d="M161.712,261.81l0.744-0.876c0.515,0.49,1.206,0.82,1.875,0.82c0.81,0,1.254-0.367,1.254-0.928
							c0-0.593-0.464-0.781-1.118-1.059l-0.983-0.427c-0.708-0.295-1.455-0.856-1.455-1.908c0-1.146,1.012-2.028,2.416-2.028
							c0.84,0,1.655,0.348,2.218,0.917l-0.656,0.811c-0.458-0.39-0.946-0.619-1.562-0.619c-0.682,0-1.126,0.319-1.126,0.846
							c0,0.565,0.548,0.774,1.144,1.019l0.97,0.407c0.856,0.356,1.455,0.897,1.455,1.94c0,1.166-0.968,2.139-2.583,2.139
							C163.332,262.864,162.394,262.481,161.712,261.81z"/>
					</g>
				</g>
			</g>
		</g>
	</g>
</g>
<style>
#g-1939-sanborn-Artboard_3-interaction-img rect, #g-1939-sanborn-Artboard_3-interaction-img circle, #g-1939-sanborn-Artboard_3-interaction-img path, #g-1939-sanborn-Artboard_3-interaction-img line, #g-1939-sanborn-Artboard_3-interaction-img polyline { vector-effect: non-scaling-stroke; }
</style>
</svg>

